solid OpenSCAD_Model
  facet normal -1 0 0
    outer loop
      vertex -3 -3 -3
      vertex -3 50 38
      vertex -3 50 -3
    endloop
  endfacet
  facet normal -1 -0 0
    outer loop
      vertex -3 50 38
      vertex -3 -3 -3
      vertex -3 -3 38
    endloop
  endfacet
  facet normal 0 0 1
    outer loop
      vertex 58 50 38
      vertex 55 47 38
      vertex 58 -3 38
    endloop
  endfacet
  facet normal 0 0 1
    outer loop
      vertex 58 50 38
      vertex 0 47 38
      vertex 55 47 38
    endloop
  endfacet
  facet normal 0 0 1
    outer loop
      vertex 0 47 38
      vertex -3 50 38
      vertex 0 0 38
    endloop
  endfacet
  facet normal -0 0 1
    outer loop
      vertex -3 50 38
      vertex 0 47 38
      vertex 58 50 38
    endloop
  endfacet
  facet normal -0 0 1
    outer loop
      vertex 55 0 38
      vertex 58 -3 38
      vertex 55 47 38
    endloop
  endfacet
  facet normal 0 0 1
    outer loop
      vertex 47 -3 38
      vertex 55 0 38
      vertex 47 0 38
    endloop
  endfacet
  facet normal 0 0 1
    outer loop
      vertex 55 0 38
      vertex 47 -3 38
      vertex 58 -3 38
    endloop
  endfacet
  facet normal -0 0 1
    outer loop
      vertex 0 0 38
      vertex 8 -3 38
      vertex 8 0 38
    endloop
  endfacet
  facet normal 0 0 1
    outer loop
      vertex 0 0 38
      vertex -3 -3 38
      vertex 8 -3 38
    endloop
  endfacet
  facet normal 0 0 1
    outer loop
      vertex -3 -3 38
      vertex 0 0 38
      vertex -3 50 38
    endloop
  endfacet
  facet normal 1 -0 0
    outer loop
      vertex 58 -3 38
      vertex 58 50 -3
      vertex 58 50 38
    endloop
  endfacet
  facet normal 1 0 0
    outer loop
      vertex 58 50 -3
      vertex 58 -3 38
      vertex 58 -3 -3
    endloop
  endfacet
  facet normal 0 1 0
    outer loop
      vertex 58 50 38
      vertex 41.882 50 26.9021
      vertex -3 50 38
    endloop
  endfacet
  facet normal 0 1 0
    outer loop
      vertex -3 50 38
      vertex 12.8748 50 26.9646
      vertex 12.6256 50 26.9961
    endloop
  endfacet
  facet normal 0 1 -0
    outer loop
      vertex 13.118 50 26.9021
      vertex -3 50 38
      vertex 41.882 50 26.9021
    endloop
  endfacet
  facet normal 0 1 0
    outer loop
      vertex -3 50 38
      vertex 13.118 50 26.9021
      vertex 12.8748 50 26.9646
    endloop
  endfacet
  facet normal 0 1 -0
    outer loop
      vertex 41.6484 50 26.8097
      vertex 13.118 50 26.9021
      vertex 41.882 50 26.9021
    endloop
  endfacet
  facet normal 0 1 0
    outer loop
      vertex 41.6484 50 26.8097
      vertex 13.3516 50 26.8097
      vertex 13.118 50 26.9021
    endloop
  endfacet
  facet normal 0 1 -0
    outer loop
      vertex 41.4283 50 26.6887
      vertex 13.3516 50 26.8097
      vertex 41.6484 50 26.8097
    endloop
  endfacet
  facet normal 0 1 0
    outer loop
      vertex 41.4283 50 26.6887
      vertex 13.5717 50 26.6887
      vertex 13.3516 50 26.8097
    endloop
  endfacet
  facet normal 0 1 -0
    outer loop
      vertex 41.2252 50 26.541
      vertex 13.5717 50 26.6887
      vertex 41.4283 50 26.6887
    endloop
  endfacet
  facet normal 0 1 0
    outer loop
      vertex 41.2252 50 26.541
      vertex 13.7748 50 26.541
      vertex 13.5717 50 26.6887
    endloop
  endfacet
  facet normal 0 1 -0
    outer loop
      vertex 41.0421 50 26.3691
      vertex 13.7748 50 26.541
      vertex 41.2252 50 26.541
    endloop
  endfacet
  facet normal 0 1 0
    outer loop
      vertex 41.0421 50 26.3691
      vertex 13.9579 50 26.3691
      vertex 13.7748 50 26.541
    endloop
  endfacet
  facet normal 0 1 -0
    outer loop
      vertex 40.882 50 26.1756
      vertex 13.9579 50 26.3691
      vertex 41.0421 50 26.3691
    endloop
  endfacet
  facet normal 0 1 0
    outer loop
      vertex 40.882 50 26.1756
      vertex 14.118 50 26.1756
      vertex 13.9579 50 26.3691
    endloop
  endfacet
  facet normal 0 1 -0
    outer loop
      vertex 40.7474 50 25.9635
      vertex 14.118 50 26.1756
      vertex 40.882 50 26.1756
    endloop
  endfacet
  facet normal 0 1 0
    outer loop
      vertex 40.7474 50 25.9635
      vertex 14.2526 50 25.9635
      vertex 14.118 50 26.1756
    endloop
  endfacet
  facet normal 0 1 -0
    outer loop
      vertex 40.6404 50 25.7362
      vertex 14.2526 50 25.9635
      vertex 40.7474 50 25.9635
    endloop
  endfacet
  facet normal 0 1 0
    outer loop
      vertex 40.6404 50 25.7362
      vertex 14.3596 50 25.7362
      vertex 14.2526 50 25.9635
    endloop
  endfacet
  facet normal 0 1 -0
    outer loop
      vertex 40.5628 50 25.4974
      vertex 14.3596 50 25.7362
      vertex 40.6404 50 25.7362
    endloop
  endfacet
  facet normal 0 1 0
    outer loop
      vertex 40.5628 50 25.4974
      vertex 14.4372 50 25.4974
      vertex 14.3596 50 25.7362
    endloop
  endfacet
  facet normal 0 1 -0
    outer loop
      vertex 40.5158 50 25.2507
      vertex 14.4372 50 25.4974
      vertex 40.5628 50 25.4974
    endloop
  endfacet
  facet normal 0 1 0
    outer loop
      vertex 40.5158 50 25.2507
      vertex 14.4842 50 25.2507
      vertex 14.4372 50 25.4974
    endloop
  endfacet
  facet normal 0 1 -0
    outer loop
      vertex 40.5 50 25
      vertex 14.4842 50 25.2507
      vertex 40.5158 50 25.2507
    endloop
  endfacet
  facet normal 0 1 0
    outer loop
      vertex 40.5 50 25
      vertex 14.5 50 25
      vertex 14.4842 50 25.2507
    endloop
  endfacet
  facet normal 0 1 0
    outer loop
      vertex 40.5158 50 24.7493
      vertex 14.5 50 25
      vertex 40.5 50 25
    endloop
  endfacet
  facet normal 0 1 0
    outer loop
      vertex 40.5158 50 24.7493
      vertex 14.4842 50 24.7493
      vertex 14.5 50 25
    endloop
  endfacet
  facet normal 0 1 0
    outer loop
      vertex 40.5628 50 24.5026
      vertex 14.4842 50 24.7493
      vertex 40.5158 50 24.7493
    endloop
  endfacet
  facet normal 0 1 0
    outer loop
      vertex 40.5628 50 24.5026
      vertex 14.4372 50 24.5026
      vertex 14.4842 50 24.7493
    endloop
  endfacet
  facet normal 0 1 0
    outer loop
      vertex 40.6404 50 24.2638
      vertex 14.4372 50 24.5026
      vertex 40.5628 50 24.5026
    endloop
  endfacet
  facet normal 0 1 0
    outer loop
      vertex 40.6404 50 24.2638
      vertex 14.3596 50 24.2638
      vertex 14.4372 50 24.5026
    endloop
  endfacet
  facet normal 0 1 0
    outer loop
      vertex 40.7474 50 24.0365
      vertex 14.3596 50 24.2638
      vertex 40.6404 50 24.2638
    endloop
  endfacet
  facet normal 0 1 0
    outer loop
      vertex 40.7474 50 24.0365
      vertex 14.2526 50 24.0365
      vertex 14.3596 50 24.2638
    endloop
  endfacet
  facet normal 0 1 0
    outer loop
      vertex 40.882 50 23.8244
      vertex 14.2526 50 24.0365
      vertex 40.7474 50 24.0365
    endloop
  endfacet
  facet normal 0 1 0
    outer loop
      vertex 40.882 50 23.8244
      vertex 14.118 50 23.8244
      vertex 14.2526 50 24.0365
    endloop
  endfacet
  facet normal 0 1 0
    outer loop
      vertex 41.0421 50 23.6309
      vertex 14.118 50 23.8244
      vertex 40.882 50 23.8244
    endloop
  endfacet
  facet normal 0 1 0
    outer loop
      vertex 41.0421 50 23.6309
      vertex 13.9579 50 23.6309
      vertex 14.118 50 23.8244
    endloop
  endfacet
  facet normal 0 1 0
    outer loop
      vertex 41.2252 50 23.459
      vertex 13.9579 50 23.6309
      vertex 41.0421 50 23.6309
    endloop
  endfacet
  facet normal 0 1 0
    outer loop
      vertex 41.2252 50 23.459
      vertex 13.7748 50 23.459
      vertex 13.9579 50 23.6309
    endloop
  endfacet
  facet normal 0 1 0
    outer loop
      vertex 41.4283 50 23.3113
      vertex 13.7748 50 23.459
      vertex 41.2252 50 23.459
    endloop
  endfacet
  facet normal 0 1 0
    outer loop
      vertex 41.4283 50 23.3113
      vertex 13.5717 50 23.3113
      vertex 13.7748 50 23.459
    endloop
  endfacet
  facet normal 0 1 0
    outer loop
      vertex 41.6484 50 23.1903
      vertex 13.5717 50 23.3113
      vertex 41.4283 50 23.3113
    endloop
  endfacet
  facet normal 0 1 0
    outer loop
      vertex 41.6484 50 23.1903
      vertex 13.3516 50 23.1903
      vertex 13.5717 50 23.3113
    endloop
  endfacet
  facet normal 0 1 0
    outer loop
      vertex 58 50 -3
      vertex 41.6484 50 23.1903
      vertex 41.882 50 23.0979
    endloop
  endfacet
  facet normal 0 1 0
    outer loop
      vertex 41.6484 50 23.1903
      vertex 58 50 -3
      vertex 13.3516 50 23.1903
    endloop
  endfacet
  facet normal 0 1 0
    outer loop
      vertex 58 50 -3
      vertex 41.882 50 23.0979
      vertex 42.1252 50 23.0354
    endloop
  endfacet
  facet normal 0 1 0
    outer loop
      vertex -3 50 -3
      vertex 13.3516 50 23.1903
      vertex 58 50 -3
    endloop
  endfacet
  facet normal 0 1 0
    outer loop
      vertex 58 50 -3
      vertex 42.1252 50 23.0354
      vertex 42.3744 50 23.0039
    endloop
  endfacet
  facet normal 0 1 0
    outer loop
      vertex 13.3516 50 23.1903
      vertex -3 50 -3
      vertex 13.118 50 23.0979
    endloop
  endfacet
  facet normal 0 1 0
    outer loop
      vertex 42.3744 50 26.9961
      vertex 58 50 38
      vertex 42.6256 50 26.9961
    endloop
  endfacet
  facet normal 0 1 0
    outer loop
      vertex 58 50 38
      vertex 42.8748 50 26.9646
      vertex 42.6256 50 26.9961
    endloop
  endfacet
  facet normal 0 1 0
    outer loop
      vertex 58 50 38
      vertex 43.118 50 26.9021
      vertex 42.8748 50 26.9646
    endloop
  endfacet
  facet normal 0 1 0
    outer loop
      vertex 58 50 38
      vertex 43.3516 50 26.8097
      vertex 43.118 50 26.9021
    endloop
  endfacet
  facet normal 0 1 0
    outer loop
      vertex 58 50 38
      vertex 43.5717 50 26.6887
      vertex 43.3516 50 26.8097
    endloop
  endfacet
  facet normal 0 1 0
    outer loop
      vertex 58 50 38
      vertex 43.7748 50 26.541
      vertex 43.5717 50 26.6887
    endloop
  endfacet
  facet normal 0 1 0
    outer loop
      vertex 58 50 38
      vertex 43.9579 50 26.3691
      vertex 43.7748 50 26.541
    endloop
  endfacet
  facet normal 0 1 0
    outer loop
      vertex 58 50 38
      vertex 44.118 50 26.1756
      vertex 43.9579 50 26.3691
    endloop
  endfacet
  facet normal 0 1 0
    outer loop
      vertex 58 50 38
      vertex 44.2526 50 25.9635
      vertex 44.118 50 26.1756
    endloop
  endfacet
  facet normal 0 1 0
    outer loop
      vertex 58 50 38
      vertex 44.3596 50 25.7362
      vertex 44.2526 50 25.9635
    endloop
  endfacet
  facet normal 0 1 0
    outer loop
      vertex 58 50 38
      vertex 44.4372 50 25.4974
      vertex 44.3596 50 25.7362
    endloop
  endfacet
  facet normal 0 1 0
    outer loop
      vertex 58 50 38
      vertex 44.4842 50 25.2507
      vertex 44.4372 50 25.4974
    endloop
  endfacet
  facet normal 0 1 0
    outer loop
      vertex 58 50 38
      vertex 44.5 50 25
      vertex 44.4842 50 25.2507
    endloop
  endfacet
  facet normal 0 1 0
    outer loop
      vertex 58 50 38
      vertex 44.4842 50 24.7493
      vertex 44.5 50 25
    endloop
  endfacet
  facet normal 0 1 0
    outer loop
      vertex 58 50 38
      vertex 44.4372 50 24.5026
      vertex 44.4842 50 24.7493
    endloop
  endfacet
  facet normal 0 1 0
    outer loop
      vertex 58 50 38
      vertex 44.3596 50 24.2638
      vertex 44.4372 50 24.5026
    endloop
  endfacet
  facet normal 0 1 -0
    outer loop
      vertex 58 50 -3
      vertex 44.3596 50 24.2638
      vertex 58 50 38
    endloop
  endfacet
  facet normal 0 1 0
    outer loop
      vertex 44.3596 50 24.2638
      vertex 58 50 -3
      vertex 44.2526 50 24.0365
    endloop
  endfacet
  facet normal 0 1 0
    outer loop
      vertex 44.2526 50 24.0365
      vertex 58 50 -3
      vertex 44.118 50 23.8244
    endloop
  endfacet
  facet normal 0 1 0
    outer loop
      vertex 58 50 -3
      vertex 42.3744 50 23.0039
      vertex 42.6256 50 23.0039
    endloop
  endfacet
  facet normal 0 1 0
    outer loop
      vertex 13.118 50 23.0979
      vertex -3 50 -3
      vertex 12.8748 50 23.0354
    endloop
  endfacet
  facet normal 0 1 0
    outer loop
      vertex 12.8748 50 23.0354
      vertex -3 50 -3
      vertex 12.6256 50 23.0039
    endloop
  endfacet
  facet normal 0 1 0
    outer loop
      vertex 42.8748 50 23.0354
      vertex 58 50 -3
      vertex 42.6256 50 23.0039
    endloop
  endfacet
  facet normal 0 1 0
    outer loop
      vertex 43.118 50 23.0979
      vertex 58 50 -3
      vertex 42.8748 50 23.0354
    endloop
  endfacet
  facet normal 0 1 0
    outer loop
      vertex 43.3516 50 23.1903
      vertex 58 50 -3
      vertex 43.118 50 23.0979
    endloop
  endfacet
  facet normal 0 1 0
    outer loop
      vertex 43.5717 50 23.3113
      vertex 58 50 -3
      vertex 43.3516 50 23.1903
    endloop
  endfacet
  facet normal 0 1 0
    outer loop
      vertex 43.7748 50 23.459
      vertex 58 50 -3
      vertex 43.5717 50 23.3113
    endloop
  endfacet
  facet normal 0 1 0
    outer loop
      vertex 43.9579 50 23.6309
      vertex 58 50 -3
      vertex 43.7748 50 23.459
    endloop
  endfacet
  facet normal 0 1 0
    outer loop
      vertex 44.118 50 23.8244
      vertex 58 50 -3
      vertex 43.9579 50 23.6309
    endloop
  endfacet
  facet normal 0 1 0
    outer loop
      vertex 42.1252 50 26.9646
      vertex 58 50 38
      vertex 42.3744 50 26.9961
    endloop
  endfacet
  facet normal 0 1 0
    outer loop
      vertex 41.882 50 26.9021
      vertex 58 50 38
      vertex 42.1252 50 26.9646
    endloop
  endfacet
  facet normal 0 1 -0
    outer loop
      vertex 12.3744 50 26.9961
      vertex -3 50 38
      vertex 12.6256 50 26.9961
    endloop
  endfacet
  facet normal 0 1 -0
    outer loop
      vertex 12.1252 50 26.9646
      vertex -3 50 38
      vertex 12.3744 50 26.9961
    endloop
  endfacet
  facet normal 0 1 -0
    outer loop
      vertex 11.882 50 26.9021
      vertex -3 50 38
      vertex 12.1252 50 26.9646
    endloop
  endfacet
  facet normal 0 1 -0
    outer loop
      vertex 11.6484 50 26.8097
      vertex -3 50 38
      vertex 11.882 50 26.9021
    endloop
  endfacet
  facet normal 0 1 -0
    outer loop
      vertex 11.4283 50 26.6887
      vertex -3 50 38
      vertex 11.6484 50 26.8097
    endloop
  endfacet
  facet normal 0 1 -0
    outer loop
      vertex 11.2252 50 26.541
      vertex -3 50 38
      vertex 11.4283 50 26.6887
    endloop
  endfacet
  facet normal 0 1 -0
    outer loop
      vertex 11.0421 50 26.3691
      vertex -3 50 38
      vertex 11.2252 50 26.541
    endloop
  endfacet
  facet normal 0 1 -0
    outer loop
      vertex 10.882 50 26.1756
      vertex -3 50 38
      vertex 11.0421 50 26.3691
    endloop
  endfacet
  facet normal 0 1 -0
    outer loop
      vertex 10.7474 50 25.9635
      vertex -3 50 38
      vertex 10.882 50 26.1756
    endloop
  endfacet
  facet normal 0 1 -0
    outer loop
      vertex 10.6404 50 25.7362
      vertex -3 50 38
      vertex 10.7474 50 25.9635
    endloop
  endfacet
  facet normal 0 1 -0
    outer loop
      vertex 10.5628 50 25.4974
      vertex -3 50 38
      vertex 10.6404 50 25.7362
    endloop
  endfacet
  facet normal 0 1 -0
    outer loop
      vertex 10.5158 50 25.2507
      vertex -3 50 38
      vertex 10.5628 50 25.4974
    endloop
  endfacet
  facet normal 0 1 -0
    outer loop
      vertex 10.5 50 25
      vertex -3 50 38
      vertex 10.5158 50 25.2507
    endloop
  endfacet
  facet normal 0 1 0
    outer loop
      vertex 10.5158 50 24.7493
      vertex -3 50 38
      vertex 10.5 50 25
    endloop
  endfacet
  facet normal 0 1 0
    outer loop
      vertex 10.5628 50 24.5026
      vertex -3 50 38
      vertex 10.5158 50 24.7493
    endloop
  endfacet
  facet normal 0 1 0
    outer loop
      vertex 10.6404 50 24.2638
      vertex -3 50 38
      vertex 10.5628 50 24.5026
    endloop
  endfacet
  facet normal 0 1 0
    outer loop
      vertex -3 50 -3
      vertex 10.6404 50 24.2638
      vertex 10.7474 50 24.0365
    endloop
  endfacet
  facet normal 0 1 0
    outer loop
      vertex -3 50 -3
      vertex 10.7474 50 24.0365
      vertex 10.882 50 23.8244
    endloop
  endfacet
  facet normal 0 1 0
    outer loop
      vertex -3 50 -3
      vertex 10.882 50 23.8244
      vertex 11.0421 50 23.6309
    endloop
  endfacet
  facet normal 0 1 0
    outer loop
      vertex 12.6256 50 23.0039
      vertex -3 50 -3
      vertex 12.3744 50 23.0039
    endloop
  endfacet
  facet normal 0 1 0
    outer loop
      vertex 12.3744 50 23.0039
      vertex -3 50 -3
      vertex 12.1252 50 23.0354
    endloop
  endfacet
  facet normal 0 1 0
    outer loop
      vertex 12.1252 50 23.0354
      vertex -3 50 -3
      vertex 11.882 50 23.0979
    endloop
  endfacet
  facet normal 0 1 0
    outer loop
      vertex 11.882 50 23.0979
      vertex -3 50 -3
      vertex 11.6484 50 23.1903
    endloop
  endfacet
  facet normal 0 1 0
    outer loop
      vertex 10.6404 50 24.2638
      vertex -3 50 -3
      vertex -3 50 38
    endloop
  endfacet
  facet normal 0 1 0
    outer loop
      vertex 11.2252 50 23.459
      vertex -3 50 -3
      vertex 11.0421 50 23.6309
    endloop
  endfacet
  facet normal 0 1 0
    outer loop
      vertex 11.4283 50 23.3113
      vertex -3 50 -3
      vertex 11.2252 50 23.459
    endloop
  endfacet
  facet normal 0 1 0
    outer loop
      vertex 11.6484 50 23.1903
      vertex -3 50 -3
      vertex 11.4283 50 23.3113
    endloop
  endfacet
  facet normal 0 0 -1
    outer loop
      vertex 8 -3 -3
      vertex -3 -3 -3
      vertex 8 0.0999994 -3
    endloop
  endfacet
  facet normal 0 0 -1
    outer loop
      vertex 13 0.0999994 -3
      vertex 8 0.0999994 -3
      vertex 13 25 -3
    endloop
  endfacet
  facet normal 0 0 -1
    outer loop
      vertex 47 0.0999994 -3
      vertex 58 -3 -3
      vertex 47 -3 -3
    endloop
  endfacet
  facet normal 0 0 -1
    outer loop
      vertex 42 25 -3
      vertex 58 -3 -3
      vertex 47 0.0999994 -3
    endloop
  endfacet
  facet normal 0 0 -1
    outer loop
      vertex 42 25 -3
      vertex 47 0.0999994 -3
      vertex 42 0.0999994 -3
    endloop
  endfacet
  facet normal 0 0 -1
    outer loop
      vertex 58 -3 -3
      vertex 42 25 -3
      vertex 58 50 -3
    endloop
  endfacet
  facet normal 0 0 -1
    outer loop
      vertex 41.8857 26.8173 -3
      vertex 58 50 -3
      vertex 42 25 -3
    endloop
  endfacet
  facet normal 0 0 -1
    outer loop
      vertex 41.5445 28.606 -3
      vertex 58 50 -3
      vertex 41.8857 26.8173 -3
    endloop
  endfacet
  facet normal 0 0 -1
    outer loop
      vertex 40.9818 30.3378 -3
      vertex 58 50 -3
      vertex 41.5445 28.606 -3
    endloop
  endfacet
  facet normal 0 0 -1
    outer loop
      vertex 40.2064 31.9854 -3
      vertex 58 50 -3
      vertex 40.9818 30.3378 -3
    endloop
  endfacet
  facet normal 0 0 -1
    outer loop
      vertex 39.2307 33.5229 -3
      vertex 58 50 -3
      vertex 40.2064 31.9854 -3
    endloop
  endfacet
  facet normal 0 0 -1
    outer loop
      vertex 38.07 34.9259 -3
      vertex 58 50 -3
      vertex 39.2307 33.5229 -3
    endloop
  endfacet
  facet normal 0 0 -1
    outer loop
      vertex 36.7426 36.1724 -3
      vertex 58 50 -3
      vertex 38.07 34.9259 -3
    endloop
  endfacet
  facet normal 0 0 -1
    outer loop
      vertex 35.2695 37.2428 -3
      vertex 58 50 -3
      vertex 36.7426 36.1724 -3
    endloop
  endfacet
  facet normal 0 0 -1
    outer loop
      vertex 33.6738 38.12 -3
      vertex 58 50 -3
      vertex 35.2695 37.2428 -3
    endloop
  endfacet
  facet normal 0 0 -1
    outer loop
      vertex 31.9807 38.7903 -3
      vertex 58 50 -3
      vertex 33.6738 38.12 -3
    endloop
  endfacet
  facet normal 0 0 -1
    outer loop
      vertex 30.217 39.2432 -3
      vertex 58 50 -3
      vertex 31.9807 38.7903 -3
    endloop
  endfacet
  facet normal 0 0 -1
    outer loop
      vertex 28.4105 39.4714 -3
      vertex 58 50 -3
      vertex 30.217 39.2432 -3
    endloop
  endfacet
  facet normal 0 0 -1
    outer loop
      vertex 26.5895 39.4714 -3
      vertex 58 50 -3
      vertex 28.4105 39.4714 -3
    endloop
  endfacet
  facet normal 0 0 -1
    outer loop
      vertex -3 50 -3
      vertex 26.5895 39.4714 -3
      vertex 24.783 39.2432 -3
    endloop
  endfacet
  facet normal 0 0 -1
    outer loop
      vertex -3 50 -3
      vertex 24.783 39.2432 -3
      vertex 23.0193 38.7903 -3
    endloop
  endfacet
  facet normal 0 0 -1
    outer loop
      vertex -3 -3 -3
      vertex 13 25 -3
      vertex 8 0.0999994 -3
    endloop
  endfacet
  facet normal 0 0 -1
    outer loop
      vertex -3 50 -3
      vertex 13 25 -3
      vertex -3 -3 -3
    endloop
  endfacet
  facet normal 0 0 -1
    outer loop
      vertex 13 25 -3
      vertex -3 50 -3
      vertex 13.1143 26.8173 -3
    endloop
  endfacet
  facet normal 0 0 -1
    outer loop
      vertex 13.1143 26.8173 -3
      vertex -3 50 -3
      vertex 13.4555 28.606 -3
    endloop
  endfacet
  facet normal 0 0 -1
    outer loop
      vertex 13.4555 28.606 -3
      vertex -3 50 -3
      vertex 14.0182 30.3378 -3
    endloop
  endfacet
  facet normal 0 0 -1
    outer loop
      vertex 26.5895 39.4714 -3
      vertex -3 50 -3
      vertex 58 50 -3
    endloop
  endfacet
  facet normal 0 0 -1
    outer loop
      vertex 21.3262 38.12 -3
      vertex -3 50 -3
      vertex 23.0193 38.7903 -3
    endloop
  endfacet
  facet normal 0 0 -1
    outer loop
      vertex 19.7305 37.2428 -3
      vertex -3 50 -3
      vertex 21.3262 38.12 -3
    endloop
  endfacet
  facet normal 0 0 -1
    outer loop
      vertex 18.2574 36.1724 -3
      vertex -3 50 -3
      vertex 19.7305 37.2428 -3
    endloop
  endfacet
  facet normal 0 0 -1
    outer loop
      vertex 16.93 34.9259 -3
      vertex -3 50 -3
      vertex 18.2574 36.1724 -3
    endloop
  endfacet
  facet normal 0 0 -1
    outer loop
      vertex 15.7693 33.5229 -3
      vertex -3 50 -3
      vertex 16.93 34.9259 -3
    endloop
  endfacet
  facet normal 0 0 -1
    outer loop
      vertex 14.7936 31.9854 -3
      vertex -3 50 -3
      vertex 15.7693 33.5229 -3
    endloop
  endfacet
  facet normal 0 0 -1
    outer loop
      vertex 14.0182 30.3378 -3
      vertex -3 50 -3
      vertex 14.7936 31.9854 -3
    endloop
  endfacet
  facet normal 0 -1 0
    outer loop
      vertex -3 -3 -3
      vertex 8 -3 38
      vertex -3 -3 38
    endloop
  endfacet
  facet normal 0 -1 -0
    outer loop
      vertex 8 -3 38
      vertex -3 -3 -3
      vertex 8 -3 -3
    endloop
  endfacet
  facet normal 0 -1 0
    outer loop
      vertex 47 -3 -3
      vertex 58 -3 38
      vertex 47 -3 38
    endloop
  endfacet
  facet normal 0 -1 -0
    outer loop
      vertex 58 -3 38
      vertex 47 -3 -3
      vertex 58 -3 -3
    endloop
  endfacet
  facet normal 1 -0 0
    outer loop
      vertex 0 0 38
      vertex 0 47 0
      vertex 0 47 38
    endloop
  endfacet
  facet normal 1 0 0
    outer loop
      vertex 0 47 0
      vertex 0 0 38
      vertex 0 0 0
    endloop
  endfacet
  facet normal -1 0 0
    outer loop
      vertex 55 0 0
      vertex 55 47 38
      vertex 55 47 0
    endloop
  endfacet
  facet normal -1 -0 0
    outer loop
      vertex 55 47 38
      vertex 55 0 0
      vertex 55 0 38
    endloop
  endfacet
  facet normal 0 -1 0
    outer loop
      vertex 13.3516 47 26.8097
      vertex 0 47 38
      vertex 13.118 47 26.9021
    endloop
  endfacet
  facet normal 0 -1 0
    outer loop
      vertex 55 47 38
      vertex 42.1252 47 26.9646
      vertex 42.3744 47 26.9961
    endloop
  endfacet
  facet normal 0 -1 0
    outer loop
      vertex 0 47 38
      vertex 13.3516 47 26.8097
      vertex 55 47 38
    endloop
  endfacet
  facet normal 0 -1 0
    outer loop
      vertex 55 47 38
      vertex 41.882 47 26.9021
      vertex 42.1252 47 26.9646
    endloop
  endfacet
  facet normal 0 -1 0
    outer loop
      vertex 41.6484 47 26.8097
      vertex 55 47 38
      vertex 13.3516 47 26.8097
    endloop
  endfacet
  facet normal 0 -1 0
    outer loop
      vertex 55 47 38
      vertex 41.6484 47 26.8097
      vertex 41.882 47 26.9021
    endloop
  endfacet
  facet normal 0 -1 0
    outer loop
      vertex 13.5717 47 26.6887
      vertex 41.6484 47 26.8097
      vertex 13.3516 47 26.8097
    endloop
  endfacet
  facet normal 0 -1 0
    outer loop
      vertex 13.5717 47 26.6887
      vertex 41.4283 47 26.6887
      vertex 41.6484 47 26.8097
    endloop
  endfacet
  facet normal 0 -1 0
    outer loop
      vertex 13.7748 47 26.541
      vertex 41.4283 47 26.6887
      vertex 13.5717 47 26.6887
    endloop
  endfacet
  facet normal 0 -1 0
    outer loop
      vertex 13.7748 47 26.541
      vertex 41.2252 47 26.541
      vertex 41.4283 47 26.6887
    endloop
  endfacet
  facet normal 0 -1 0
    outer loop
      vertex 13.9579 47 26.3691
      vertex 41.2252 47 26.541
      vertex 13.7748 47 26.541
    endloop
  endfacet
  facet normal 0 -1 0
    outer loop
      vertex 13.9579 47 26.3691
      vertex 41.0421 47 26.3691
      vertex 41.2252 47 26.541
    endloop
  endfacet
  facet normal 0 -1 0
    outer loop
      vertex 14.118 47 26.1756
      vertex 41.0421 47 26.3691
      vertex 13.9579 47 26.3691
    endloop
  endfacet
  facet normal 0 -1 0
    outer loop
      vertex 14.118 47 26.1756
      vertex 40.882 47 26.1756
      vertex 41.0421 47 26.3691
    endloop
  endfacet
  facet normal 0 -1 0
    outer loop
      vertex 14.2526 47 25.9635
      vertex 40.882 47 26.1756
      vertex 14.118 47 26.1756
    endloop
  endfacet
  facet normal 0 -1 0
    outer loop
      vertex 14.2526 47 25.9635
      vertex 40.7474 47 25.9635
      vertex 40.882 47 26.1756
    endloop
  endfacet
  facet normal 0 -1 0
    outer loop
      vertex 14.3596 47 25.7362
      vertex 40.7474 47 25.9635
      vertex 14.2526 47 25.9635
    endloop
  endfacet
  facet normal 0 -1 0
    outer loop
      vertex 14.3596 47 25.7362
      vertex 40.6404 47 25.7362
      vertex 40.7474 47 25.9635
    endloop
  endfacet
  facet normal 0 -1 0
    outer loop
      vertex 14.4372 47 25.4974
      vertex 40.6404 47 25.7362
      vertex 14.3596 47 25.7362
    endloop
  endfacet
  facet normal 0 -1 0
    outer loop
      vertex 14.4372 47 25.4974
      vertex 40.5628 47 25.4974
      vertex 40.6404 47 25.7362
    endloop
  endfacet
  facet normal 0 -1 0
    outer loop
      vertex 14.4842 47 25.2507
      vertex 40.5628 47 25.4974
      vertex 14.4372 47 25.4974
    endloop
  endfacet
  facet normal 0 -1 0
    outer loop
      vertex 14.4842 47 25.2507
      vertex 40.5158 47 25.2507
      vertex 40.5628 47 25.4974
    endloop
  endfacet
  facet normal 0 -1 0
    outer loop
      vertex 14.5 47 25
      vertex 40.5158 47 25.2507
      vertex 14.4842 47 25.2507
    endloop
  endfacet
  facet normal 0 -1 0
    outer loop
      vertex 14.5 47 25
      vertex 40.5 47 25
      vertex 40.5158 47 25.2507
    endloop
  endfacet
  facet normal 0 -1 0
    outer loop
      vertex 14.4842 47 24.7493
      vertex 40.5 47 25
      vertex 14.5 47 25
    endloop
  endfacet
  facet normal 0 -1 0
    outer loop
      vertex 14.4842 47 24.7493
      vertex 40.5158 47 24.7493
      vertex 40.5 47 25
    endloop
  endfacet
  facet normal 0 -1 0
    outer loop
      vertex 14.4372 47 24.5026
      vertex 40.5158 47 24.7493
      vertex 14.4842 47 24.7493
    endloop
  endfacet
  facet normal 0 -1 0
    outer loop
      vertex 14.4372 47 24.5026
      vertex 40.5628 47 24.5026
      vertex 40.5158 47 24.7493
    endloop
  endfacet
  facet normal 0 -1 0
    outer loop
      vertex 14.3596 47 24.2638
      vertex 40.5628 47 24.5026
      vertex 14.4372 47 24.5026
    endloop
  endfacet
  facet normal 0 -1 0
    outer loop
      vertex 14.3596 47 24.2638
      vertex 40.6404 47 24.2638
      vertex 40.5628 47 24.5026
    endloop
  endfacet
  facet normal 0 -1 0
    outer loop
      vertex 14.2526 47 24.0365
      vertex 40.6404 47 24.2638
      vertex 14.3596 47 24.2638
    endloop
  endfacet
  facet normal 0 -1 0
    outer loop
      vertex 14.2526 47 24.0365
      vertex 40.7474 47 24.0365
      vertex 40.6404 47 24.2638
    endloop
  endfacet
  facet normal 0 -1 0
    outer loop
      vertex 14.118 47 23.8244
      vertex 40.7474 47 24.0365
      vertex 14.2526 47 24.0365
    endloop
  endfacet
  facet normal 0 -1 0
    outer loop
      vertex 14.118 47 23.8244
      vertex 40.882 47 23.8244
      vertex 40.7474 47 24.0365
    endloop
  endfacet
  facet normal 0 -1 0
    outer loop
      vertex 13.9579 47 23.6309
      vertex 40.882 47 23.8244
      vertex 14.118 47 23.8244
    endloop
  endfacet
  facet normal 0 -1 0
    outer loop
      vertex 13.9579 47 23.6309
      vertex 41.0421 47 23.6309
      vertex 40.882 47 23.8244
    endloop
  endfacet
  facet normal 0 -1 0
    outer loop
      vertex 13.7748 47 23.459
      vertex 41.0421 47 23.6309
      vertex 13.9579 47 23.6309
    endloop
  endfacet
  facet normal 0 -1 0
    outer loop
      vertex 13.7748 47 23.459
      vertex 41.2252 47 23.459
      vertex 41.0421 47 23.6309
    endloop
  endfacet
  facet normal 0 -1 0
    outer loop
      vertex 13.5717 47 23.3113
      vertex 41.2252 47 23.459
      vertex 13.7748 47 23.459
    endloop
  endfacet
  facet normal 0 -1 0
    outer loop
      vertex 13.5717 47 23.3113
      vertex 41.4283 47 23.3113
      vertex 41.2252 47 23.459
    endloop
  endfacet
  facet normal 0 -1 0
    outer loop
      vertex 0 47 0
      vertex 13.5717 47 23.3113
      vertex 13.3516 47 23.1903
    endloop
  endfacet
  facet normal 0 -1 -0
    outer loop
      vertex 13.5717 47 23.3113
      vertex 0 47 0
      vertex 41.4283 47 23.3113
    endloop
  endfacet
  facet normal 0 -1 0
    outer loop
      vertex 0 47 0
      vertex 13.3516 47 23.1903
      vertex 13.118 47 23.0979
    endloop
  endfacet
  facet normal 0 -1 0
    outer loop
      vertex 55 47 0
      vertex 41.4283 47 23.3113
      vertex 0 47 0
    endloop
  endfacet
  facet normal 0 -1 0
    outer loop
      vertex 0 47 0
      vertex 13.118 47 23.0979
      vertex 12.8748 47 23.0354
    endloop
  endfacet
  facet normal 0 -1 0
    outer loop
      vertex 41.4283 47 23.3113
      vertex 55 47 0
      vertex 41.6484 47 23.1903
    endloop
  endfacet
  facet normal 0 -1 0
    outer loop
      vertex 0 47 0
      vertex 12.8748 47 23.0354
      vertex 12.6256 47 23.0039
    endloop
  endfacet
  facet normal 0 -1 0
    outer loop
      vertex 41.6484 47 23.1903
      vertex 55 47 0
      vertex 41.882 47 23.0979
    endloop
  endfacet
  facet normal 0 -1 0
    outer loop
      vertex 12.6256 47 26.9961
      vertex 0 47 38
      vertex 12.3744 47 26.9961
    endloop
  endfacet
  facet normal 0 -1 0
    outer loop
      vertex 0 47 38
      vertex 12.1252 47 26.9646
      vertex 12.3744 47 26.9961
    endloop
  endfacet
  facet normal 0 -1 0
    outer loop
      vertex 0 47 38
      vertex 11.882 47 26.9021
      vertex 12.1252 47 26.9646
    endloop
  endfacet
  facet normal 0 -1 0
    outer loop
      vertex 0 47 38
      vertex 11.6484 47 26.8097
      vertex 11.882 47 26.9021
    endloop
  endfacet
  facet normal 0 -1 0
    outer loop
      vertex 0 47 38
      vertex 11.4283 47 26.6887
      vertex 11.6484 47 26.8097
    endloop
  endfacet
  facet normal 0 -1 0
    outer loop
      vertex 0 47 38
      vertex 11.2252 47 26.541
      vertex 11.4283 47 26.6887
    endloop
  endfacet
  facet normal 0 -1 0
    outer loop
      vertex 0 47 38
      vertex 11.0421 47 26.3691
      vertex 11.2252 47 26.541
    endloop
  endfacet
  facet normal 0 -1 0
    outer loop
      vertex 0 47 38
      vertex 10.882 47 26.1756
      vertex 11.0421 47 26.3691
    endloop
  endfacet
  facet normal 0 -1 0
    outer loop
      vertex 0 47 38
      vertex 10.7474 47 25.9635
      vertex 10.882 47 26.1756
    endloop
  endfacet
  facet normal 0 -1 0
    outer loop
      vertex 0 47 38
      vertex 10.6404 47 25.7362
      vertex 10.7474 47 25.9635
    endloop
  endfacet
  facet normal 0 -1 0
    outer loop
      vertex 0 47 38
      vertex 10.5628 47 25.4974
      vertex 10.6404 47 25.7362
    endloop
  endfacet
  facet normal 0 -1 0
    outer loop
      vertex 0 47 38
      vertex 10.5158 47 25.2507
      vertex 10.5628 47 25.4974
    endloop
  endfacet
  facet normal 0 -1 0
    outer loop
      vertex 0 47 38
      vertex 10.5 47 25
      vertex 10.5158 47 25.2507
    endloop
  endfacet
  facet normal 0 -1 0
    outer loop
      vertex 0 47 38
      vertex 10.5158 47 24.7493
      vertex 10.5 47 25
    endloop
  endfacet
  facet normal 0 -1 0
    outer loop
      vertex 0 47 38
      vertex 10.5628 47 24.5026
      vertex 10.5158 47 24.7493
    endloop
  endfacet
  facet normal 0 -1 0
    outer loop
      vertex 0 47 0
      vertex 10.5628 47 24.5026
      vertex 0 47 38
    endloop
  endfacet
  facet normal 0 -1 -0
    outer loop
      vertex 10.5628 47 24.5026
      vertex 0 47 0
      vertex 10.6404 47 24.2638
    endloop
  endfacet
  facet normal 0 -1 -0
    outer loop
      vertex 10.6404 47 24.2638
      vertex 0 47 0
      vertex 10.7474 47 24.0365
    endloop
  endfacet
  facet normal 0 -1 0
    outer loop
      vertex 0 47 0
      vertex 12.6256 47 23.0039
      vertex 12.3744 47 23.0039
    endloop
  endfacet
  facet normal 0 -1 0
    outer loop
      vertex 41.882 47 23.0979
      vertex 55 47 0
      vertex 42.1252 47 23.0354
    endloop
  endfacet
  facet normal 0 -1 0
    outer loop
      vertex 42.1252 47 23.0354
      vertex 55 47 0
      vertex 42.3744 47 23.0039
    endloop
  endfacet
  facet normal 0 -1 -0
    outer loop
      vertex 12.1252 47 23.0354
      vertex 0 47 0
      vertex 12.3744 47 23.0039
    endloop
  endfacet
  facet normal 0 -1 -0
    outer loop
      vertex 11.882 47 23.0979
      vertex 0 47 0
      vertex 12.1252 47 23.0354
    endloop
  endfacet
  facet normal 0 -1 -0
    outer loop
      vertex 11.6484 47 23.1903
      vertex 0 47 0
      vertex 11.882 47 23.0979
    endloop
  endfacet
  facet normal 0 -1 -0
    outer loop
      vertex 11.4283 47 23.3113
      vertex 0 47 0
      vertex 11.6484 47 23.1903
    endloop
  endfacet
  facet normal 0 -1 -0
    outer loop
      vertex 11.2252 47 23.459
      vertex 0 47 0
      vertex 11.4283 47 23.3113
    endloop
  endfacet
  facet normal 0 -1 -0
    outer loop
      vertex 11.0421 47 23.6309
      vertex 0 47 0
      vertex 11.2252 47 23.459
    endloop
  endfacet
  facet normal 0 -1 -0
    outer loop
      vertex 10.882 47 23.8244
      vertex 0 47 0
      vertex 11.0421 47 23.6309
    endloop
  endfacet
  facet normal 0 -1 -0
    outer loop
      vertex 10.7474 47 24.0365
      vertex 0 47 0
      vertex 10.882 47 23.8244
    endloop
  endfacet
  facet normal 0 -1 0
    outer loop
      vertex 12.8748 47 26.9646
      vertex 0 47 38
      vertex 12.6256 47 26.9961
    endloop
  endfacet
  facet normal 0 -1 0
    outer loop
      vertex 13.118 47 26.9021
      vertex 0 47 38
      vertex 12.8748 47 26.9646
    endloop
  endfacet
  facet normal 0 -1 0
    outer loop
      vertex 42.6256 47 26.9961
      vertex 55 47 38
      vertex 42.3744 47 26.9961
    endloop
  endfacet
  facet normal 0 -1 0
    outer loop
      vertex 42.8748 47 26.9646
      vertex 55 47 38
      vertex 42.6256 47 26.9961
    endloop
  endfacet
  facet normal 0 -1 0
    outer loop
      vertex 43.118 47 26.9021
      vertex 55 47 38
      vertex 42.8748 47 26.9646
    endloop
  endfacet
  facet normal 0 -1 0
    outer loop
      vertex 43.3516 47 26.8097
      vertex 55 47 38
      vertex 43.118 47 26.9021
    endloop
  endfacet
  facet normal 0 -1 0
    outer loop
      vertex 43.5717 47 26.6887
      vertex 55 47 38
      vertex 43.3516 47 26.8097
    endloop
  endfacet
  facet normal 0 -1 0
    outer loop
      vertex 43.7748 47 26.541
      vertex 55 47 38
      vertex 43.5717 47 26.6887
    endloop
  endfacet
  facet normal 0 -1 0
    outer loop
      vertex 43.9579 47 26.3691
      vertex 55 47 38
      vertex 43.7748 47 26.541
    endloop
  endfacet
  facet normal 0 -1 0
    outer loop
      vertex 44.118 47 26.1756
      vertex 55 47 38
      vertex 43.9579 47 26.3691
    endloop
  endfacet
  facet normal 0 -1 0
    outer loop
      vertex 44.2526 47 25.9635
      vertex 55 47 38
      vertex 44.118 47 26.1756
    endloop
  endfacet
  facet normal 0 -1 0
    outer loop
      vertex 44.3596 47 25.7362
      vertex 55 47 38
      vertex 44.2526 47 25.9635
    endloop
  endfacet
  facet normal 0 -1 0
    outer loop
      vertex 44.4372 47 25.4974
      vertex 55 47 38
      vertex 44.3596 47 25.7362
    endloop
  endfacet
  facet normal 0 -1 0
    outer loop
      vertex 44.4842 47 25.2507
      vertex 55 47 38
      vertex 44.4372 47 25.4974
    endloop
  endfacet
  facet normal 0 -1 0
    outer loop
      vertex 44.5 47 25
      vertex 55 47 38
      vertex 44.4842 47 25.2507
    endloop
  endfacet
  facet normal 0 -1 0
    outer loop
      vertex 44.4842 47 24.7493
      vertex 55 47 38
      vertex 44.5 47 25
    endloop
  endfacet
  facet normal 0 -1 0
    outer loop
      vertex 44.4372 47 24.5026
      vertex 55 47 38
      vertex 44.4842 47 24.7493
    endloop
  endfacet
  facet normal 0 -1 0
    outer loop
      vertex 55 47 0
      vertex 44.4372 47 24.5026
      vertex 44.3596 47 24.2638
    endloop
  endfacet
  facet normal 0 -1 0
    outer loop
      vertex 55 47 0
      vertex 44.3596 47 24.2638
      vertex 44.2526 47 24.0365
    endloop
  endfacet
  facet normal 0 -1 0
    outer loop
      vertex 55 47 0
      vertex 44.2526 47 24.0365
      vertex 44.118 47 23.8244
    endloop
  endfacet
  facet normal 0 -1 0
    outer loop
      vertex 42.3744 47 23.0039
      vertex 55 47 0
      vertex 42.6256 47 23.0039
    endloop
  endfacet
  facet normal 0 -1 0
    outer loop
      vertex 42.6256 47 23.0039
      vertex 55 47 0
      vertex 42.8748 47 23.0354
    endloop
  endfacet
  facet normal 0 -1 0
    outer loop
      vertex 42.8748 47 23.0354
      vertex 55 47 0
      vertex 43.118 47 23.0979
    endloop
  endfacet
  facet normal 0 -1 0
    outer loop
      vertex 44.4372 47 24.5026
      vertex 55 47 0
      vertex 55 47 38
    endloop
  endfacet
  facet normal 0 -1 0
    outer loop
      vertex 43.9579 47 23.6309
      vertex 55 47 0
      vertex 44.118 47 23.8244
    endloop
  endfacet
  facet normal 0 -1 0
    outer loop
      vertex 43.7748 47 23.459
      vertex 55 47 0
      vertex 43.9579 47 23.6309
    endloop
  endfacet
  facet normal 0 -1 0
    outer loop
      vertex 43.5717 47 23.3113
      vertex 55 47 0
      vertex 43.7748 47 23.459
    endloop
  endfacet
  facet normal 0 -1 0
    outer loop
      vertex 43.3516 47 23.1903
      vertex 55 47 0
      vertex 43.5717 47 23.3113
    endloop
  endfacet
  facet normal 0 -1 0
    outer loop
      vertex 43.118 47 23.0979
      vertex 55 47 0
      vertex 43.3516 47 23.1903
    endloop
  endfacet
  facet normal -0 0 1
    outer loop
      vertex 42 25 0
      vertex 55 0 0
      vertex 55 47 0
    endloop
  endfacet
  facet normal 0 0 1
    outer loop
      vertex 55 0 0
      vertex 42 25 0
      vertex 47 0.0999994 0
    endloop
  endfacet
  facet normal 0 0 1
    outer loop
      vertex 55 47 0
      vertex 41.8857 26.8173 0
      vertex 42 25 0
    endloop
  endfacet
  facet normal 0 0 1
    outer loop
      vertex 55 47 0
      vertex 41.5445 28.606 0
      vertex 41.8857 26.8173 0
    endloop
  endfacet
  facet normal 0 0 1
    outer loop
      vertex 55 47 0
      vertex 40.9818 30.3378 0
      vertex 41.5445 28.606 0
    endloop
  endfacet
  facet normal 0 0 1
    outer loop
      vertex 55 47 0
      vertex 40.2064 31.9854 0
      vertex 40.9818 30.3378 0
    endloop
  endfacet
  facet normal 0 0 1
    outer loop
      vertex 55 47 0
      vertex 39.2307 33.5229 0
      vertex 40.2064 31.9854 0
    endloop
  endfacet
  facet normal 0 0 1
    outer loop
      vertex 55 47 0
      vertex 38.07 34.9259 0
      vertex 39.2307 33.5229 0
    endloop
  endfacet
  facet normal 0 0 1
    outer loop
      vertex 55 47 0
      vertex 36.7426 36.1724 0
      vertex 38.07 34.9259 0
    endloop
  endfacet
  facet normal 0 0 1
    outer loop
      vertex 55 47 0
      vertex 35.2695 37.2428 0
      vertex 36.7426 36.1724 0
    endloop
  endfacet
  facet normal 0 0 1
    outer loop
      vertex 55 47 0
      vertex 33.6738 38.12 0
      vertex 35.2695 37.2428 0
    endloop
  endfacet
  facet normal 0 0 1
    outer loop
      vertex 55 47 0
      vertex 31.9807 38.7903 0
      vertex 33.6738 38.12 0
    endloop
  endfacet
  facet normal 0 0 1
    outer loop
      vertex 55 47 0
      vertex 30.217 39.2432 0
      vertex 31.9807 38.7903 0
    endloop
  endfacet
  facet normal 0 0 1
    outer loop
      vertex 55 47 0
      vertex 28.4105 39.4714 0
      vertex 30.217 39.2432 0
    endloop
  endfacet
  facet normal 0 0 1
    outer loop
      vertex 55 47 0
      vertex 26.5895 39.4714 0
      vertex 28.4105 39.4714 0
    endloop
  endfacet
  facet normal -0 0 1
    outer loop
      vertex 0 47 0
      vertex 26.5895 39.4714 0
      vertex 55 47 0
    endloop
  endfacet
  facet normal 0 0 1
    outer loop
      vertex 13 25 0
      vertex 8 0.0999994 0
      vertex 13 0.0999994 0
    endloop
  endfacet
  facet normal 0 0 1
    outer loop
      vertex 0 47 0
      vertex 13 25 0
      vertex 13.1143 26.8173 0
    endloop
  endfacet
  facet normal 0 0 1
    outer loop
      vertex 0 47 0
      vertex 13.1143 26.8173 0
      vertex 13.4555 28.606 0
    endloop
  endfacet
  facet normal 0 0 1
    outer loop
      vertex 26.5895 39.4714 0
      vertex 0 47 0
      vertex 24.783 39.2432 0
    endloop
  endfacet
  facet normal 0 0 1
    outer loop
      vertex 0 47 0
      vertex 23.0193 38.7903 0
      vertex 24.783 39.2432 0
    endloop
  endfacet
  facet normal 0 0 1
    outer loop
      vertex 0 47 0
      vertex 21.3262 38.12 0
      vertex 23.0193 38.7903 0
    endloop
  endfacet
  facet normal 0 0 1
    outer loop
      vertex 0 47 0
      vertex 19.7305 37.2428 0
      vertex 21.3262 38.12 0
    endloop
  endfacet
  facet normal 0 0 1
    outer loop
      vertex 0 47 0
      vertex 18.2574 36.1724 0
      vertex 19.7305 37.2428 0
    endloop
  endfacet
  facet normal 0 0 1
    outer loop
      vertex 0 47 0
      vertex 16.93 34.9259 0
      vertex 18.2574 36.1724 0
    endloop
  endfacet
  facet normal 0 0 1
    outer loop
      vertex 0 47 0
      vertex 15.7693 33.5229 0
      vertex 16.93 34.9259 0
    endloop
  endfacet
  facet normal 0 0 1
    outer loop
      vertex 0 47 0
      vertex 14.7936 31.9854 0
      vertex 15.7693 33.5229 0
    endloop
  endfacet
  facet normal 0 0 1
    outer loop
      vertex 0 47 0
      vertex 14.0182 30.3378 0
      vertex 14.7936 31.9854 0
    endloop
  endfacet
  facet normal 0 0 1
    outer loop
      vertex 0 47 0
      vertex 13.4555 28.606 0
      vertex 14.0182 30.3378 0
    endloop
  endfacet
  facet normal 0 0 1
    outer loop
      vertex 13 25 0
      vertex 0 47 0
      vertex 0 0 0
    endloop
  endfacet
  facet normal 0 0 1
    outer loop
      vertex 13 25 0
      vertex 0 0 0
      vertex 8 0.0999994 0
    endloop
  endfacet
  facet normal 0 0 1
    outer loop
      vertex 8 0.0999994 0
      vertex 0 0 0
      vertex 8 0 0
    endloop
  endfacet
  facet normal 0 0 1
    outer loop
      vertex 55 0 0
      vertex 47 0.0999994 0
      vertex 47 0 0
    endloop
  endfacet
  facet normal 0 0 1
    outer loop
      vertex 47 0.0999994 0
      vertex 42 25 0
      vertex 42 0.0999994 0
    endloop
  endfacet
  facet normal 0 1 -0
    outer loop
      vertex 8 0 0
      vertex 0 0 38
      vertex 8 0 38
    endloop
  endfacet
  facet normal 0 1 0
    outer loop
      vertex 0 0 38
      vertex 8 0 0
      vertex 0 0 0
    endloop
  endfacet
  facet normal 0 1 -0
    outer loop
      vertex 55 0 0
      vertex 47 0 38
      vertex 55 0 38
    endloop
  endfacet
  facet normal 0 1 0
    outer loop
      vertex 47 0 38
      vertex 55 0 0
      vertex 47 0 0
    endloop
  endfacet
  facet normal 1 0 0
    outer loop
      vertex 8 0 38
      vertex 8 -3 38
      vertex 8 0 0
    endloop
  endfacet
  facet normal 1 -0 0
    outer loop
      vertex 8 0 0
      vertex 8 0.0999994 -3
      vertex 8 0.0999994 0
    endloop
  endfacet
  facet normal 1 0 0
    outer loop
      vertex 8 -3 -3
      vertex 8 0 0
      vertex 8 -3 38
    endloop
  endfacet
  facet normal 1 0 0
    outer loop
      vertex 8 0 0
      vertex 8 -3 -3
      vertex 8 0.0999994 -3
    endloop
  endfacet
  facet normal -1 0 0
    outer loop
      vertex 47 0.0999994 -3
      vertex 47 0 0
      vertex 47 0.0999994 0
    endloop
  endfacet
  facet normal -1 0 0
    outer loop
      vertex 47 -3 -3
      vertex 47 0 0
      vertex 47 0.0999994 -3
    endloop
  endfacet
  facet normal -1 0 0
    outer loop
      vertex 47 -3 38
      vertex 47 0 0
      vertex 47 -3 -3
    endloop
  endfacet
  facet normal -1 0 0
    outer loop
      vertex 47 0 0
      vertex 47 -3 38
      vertex 47 0 38
    endloop
  endfacet
  facet normal 0 -1 0
    outer loop
      vertex 8 0.0999994 -3
      vertex 13 0.0999994 0
      vertex 8 0.0999994 0
    endloop
  endfacet
  facet normal 0 -1 -0
    outer loop
      vertex 13 0.0999994 0
      vertex 8 0.0999994 -3
      vertex 13 0.0999994 -3
    endloop
  endfacet
  facet normal 0 -1 0
    outer loop
      vertex 42 0.0999994 -3
      vertex 47 0.0999994 0
      vertex 42 0.0999994 0
    endloop
  endfacet
  facet normal 0 -1 -0
    outer loop
      vertex 47 0.0999994 0
      vertex 42 0.0999994 -3
      vertex 47 0.0999994 -3
    endloop
  endfacet
  facet normal -0.998027 -0.0627911 0
    outer loop
      vertex 42 25 -3
      vertex 41.8857 26.8173 0
      vertex 41.8857 26.8173 -3
    endloop
  endfacet
  facet normal -0.998027 -0.0627911 0
    outer loop
      vertex 41.8857 26.8173 0
      vertex 42 25 -3
      vertex 42 25 0
    endloop
  endfacet
  facet normal 0.684546 -0.728969 0
    outer loop
      vertex 16.93 34.9259 -3
      vertex 18.2574 36.1724 0
      vertex 16.93 34.9259 0
    endloop
  endfacet
  facet normal 0.684546 -0.728969 0
    outer loop
      vertex 18.2574 36.1724 0
      vertex 16.93 34.9259 -3
      vertex 18.2574 36.1724 -3
    endloop
  endfacet
  facet normal -0.368126 -0.929776 0
    outer loop
      vertex 31.9807 38.7903 -3
      vertex 33.6738 38.12 0
      vertex 31.9807 38.7903 0
    endloop
  endfacet
  facet normal -0.368126 -0.929776 -0
    outer loop
      vertex 33.6738 38.12 0
      vertex 31.9807 38.7903 -3
      vertex 33.6738 38.12 -3
    endloop
  endfacet
  facet normal -0.770514 -0.637423 0
    outer loop
      vertex 39.2307 33.5229 -3
      vertex 38.07 34.9259 0
      vertex 38.07 34.9259 -3
    endloop
  endfacet
  facet normal -0.770514 -0.637423 0
    outer loop
      vertex 38.07 34.9259 0
      vertex 39.2307 33.5229 -3
      vertex 39.2307 33.5229 0
    endloop
  endfacet
  facet normal 0.998027 -0.0627901 0
    outer loop
      vertex 13 25 0
      vertex 13.1143 26.8173 -3
      vertex 13.1143 26.8173 0
    endloop
  endfacet
  facet normal 0.998027 -0.0627901 0
    outer loop
      vertex 13.1143 26.8173 -3
      vertex 13 25 0
      vertex 13 25 -3
    endloop
  endfacet
  facet normal 0.248688 -0.968584 0
    outer loop
      vertex 23.0193 38.7903 -3
      vertex 24.783 39.2432 0
      vertex 23.0193 38.7903 0
    endloop
  endfacet
  facet normal 0.248688 -0.968584 0
    outer loop
      vertex 24.783 39.2432 0
      vertex 23.0193 38.7903 -3
      vertex 24.783 39.2432 -3
    endloop
  endfacet
  facet normal -0.904827 -0.425779 0
    outer loop
      vertex 40.9818 30.3378 -3
      vertex 40.2064 31.9854 0
      vertex 40.2064 31.9854 -3
    endloop
  endfacet
  facet normal -0.904827 -0.425779 0
    outer loop
      vertex 40.2064 31.9854 0
      vertex 40.9818 30.3378 -3
      vertex 40.9818 30.3378 0
    endloop
  endfacet
  facet normal -1 0 0
    outer loop
      vertex 42 0.0999994 -3
      vertex 42 25 0
      vertex 42 25 -3
    endloop
  endfacet
  facet normal -1 -0 0
    outer loop
      vertex 42 25 0
      vertex 42 0.0999994 -3
      vertex 42 0.0999994 0
    endloop
  endfacet
  facet normal 0.982287 -0.187381 0
    outer loop
      vertex 13.1143 26.8173 0
      vertex 13.4555 28.606 -3
      vertex 13.4555 28.606 0
    endloop
  endfacet
  facet normal 0.982287 -0.187381 0
    outer loop
      vertex 13.4555 28.606 -3
      vertex 13.1143 26.8173 0
      vertex 13.1143 26.8173 -3
    endloop
  endfacet
  facet normal 0.481755 -0.876306 0
    outer loop
      vertex 19.7305 37.2428 -3
      vertex 21.3262 38.12 0
      vertex 19.7305 37.2428 0
    endloop
  endfacet
  facet normal 0.481755 -0.876306 0
    outer loop
      vertex 21.3262 38.12 0
      vertex 19.7305 37.2428 -3
      vertex 21.3262 38.12 -3
    endloop
  endfacet
  facet normal 0 -1 0
    outer loop
      vertex 26.5895 39.4714 -3
      vertex 28.4105 39.4714 0
      vertex 26.5895 39.4714 0
    endloop
  endfacet
  facet normal 0 -1 -0
    outer loop
      vertex 28.4105 39.4714 0
      vertex 26.5895 39.4714 -3
      vertex 28.4105 39.4714 -3
    endloop
  endfacet
  facet normal -0.248688 -0.968584 0
    outer loop
      vertex 30.217 39.2432 -3
      vertex 31.9807 38.7903 0
      vertex 30.217 39.2432 0
    endloop
  endfacet
  facet normal -0.248688 -0.968584 -0
    outer loop
      vertex 31.9807 38.7903 0
      vertex 30.217 39.2432 -3
      vertex 31.9807 38.7903 -3
    endloop
  endfacet
  facet normal 0.125333 -0.992115 0
    outer loop
      vertex 24.783 39.2432 -3
      vertex 26.5895 39.4714 0
      vertex 24.783 39.2432 0
    endloop
  endfacet
  facet normal 0.125333 -0.992115 0
    outer loop
      vertex 26.5895 39.4714 0
      vertex 24.783 39.2432 -3
      vertex 26.5895 39.4714 -3
    endloop
  endfacet
  facet normal 0.368126 -0.929776 0
    outer loop
      vertex 21.3262 38.12 -3
      vertex 23.0193 38.7903 0
      vertex 21.3262 38.12 0
    endloop
  endfacet
  facet normal 0.368126 -0.929776 0
    outer loop
      vertex 23.0193 38.7903 0
      vertex 21.3262 38.12 -3
      vertex 23.0193 38.7903 -3
    endloop
  endfacet
  facet normal 0.587785 -0.809017 0
    outer loop
      vertex 18.2574 36.1724 -3
      vertex 19.7305 37.2428 0
      vertex 18.2574 36.1724 0
    endloop
  endfacet
  facet normal 0.587785 -0.809017 0
    outer loop
      vertex 19.7305 37.2428 0
      vertex 18.2574 36.1724 -3
      vertex 19.7305 37.2428 -3
    endloop
  endfacet
  facet normal -0.587786 -0.809016 0
    outer loop
      vertex 35.2695 37.2428 -3
      vertex 36.7426 36.1724 0
      vertex 35.2695 37.2428 0
    endloop
  endfacet
  facet normal -0.587786 -0.809016 -0
    outer loop
      vertex 36.7426 36.1724 0
      vertex 35.2695 37.2428 -3
      vertex 36.7426 36.1724 -3
    endloop
  endfacet
  facet normal -0.684545 -0.72897 0
    outer loop
      vertex 36.7426 36.1724 -3
      vertex 38.07 34.9259 0
      vertex 36.7426 36.1724 0
    endloop
  endfacet
  facet normal -0.684545 -0.72897 -0
    outer loop
      vertex 38.07 34.9259 0
      vertex 36.7426 36.1724 -3
      vertex 38.07 34.9259 -3
    endloop
  endfacet
  facet normal -0.481754 -0.876307 0
    outer loop
      vertex 33.6738 38.12 -3
      vertex 35.2695 37.2428 0
      vertex 33.6738 38.12 0
    endloop
  endfacet
  facet normal -0.481754 -0.876307 -0
    outer loop
      vertex 35.2695 37.2428 0
      vertex 33.6738 38.12 -3
      vertex 35.2695 37.2428 -3
    endloop
  endfacet
  facet normal -0.844328 -0.535827 0
    outer loop
      vertex 40.2064 31.9854 -3
      vertex 39.2307 33.5229 0
      vertex 39.2307 33.5229 -3
    endloop
  endfacet
  facet normal -0.844328 -0.535827 0
    outer loop
      vertex 39.2307 33.5229 0
      vertex 40.2064 31.9854 -3
      vertex 40.2064 31.9854 0
    endloop
  endfacet
  facet normal -0.982287 -0.18738 0
    outer loop
      vertex 41.8857 26.8173 -3
      vertex 41.5445 28.606 0
      vertex 41.5445 28.606 -3
    endloop
  endfacet
  facet normal -0.982287 -0.18738 0
    outer loop
      vertex 41.5445 28.606 0
      vertex 41.8857 26.8173 -3
      vertex 41.8857 26.8173 0
    endloop
  endfacet
  facet normal 1 -0 0
    outer loop
      vertex 13 0.0999994 0
      vertex 13 25 -3
      vertex 13 25 0
    endloop
  endfacet
  facet normal 1 0 0
    outer loop
      vertex 13 25 -3
      vertex 13 0.0999994 0
      vertex 13 0.0999994 -3
    endloop
  endfacet
  facet normal 0.844328 -0.535827 0
    outer loop
      vertex 14.7936 31.9854 0
      vertex 15.7693 33.5229 -3
      vertex 15.7693 33.5229 0
    endloop
  endfacet
  facet normal 0.844328 -0.535827 0
    outer loop
      vertex 15.7693 33.5229 -3
      vertex 14.7936 31.9854 0
      vertex 14.7936 31.9854 -3
    endloop
  endfacet
  facet normal 0.770514 -0.637423 0
    outer loop
      vertex 15.7693 33.5229 0
      vertex 16.93 34.9259 -3
      vertex 16.93 34.9259 0
    endloop
  endfacet
  facet normal 0.770514 -0.637423 0
    outer loop
      vertex 16.93 34.9259 -3
      vertex 15.7693 33.5229 0
      vertex 15.7693 33.5229 -3
    endloop
  endfacet
  facet normal -0.125333 -0.992115 0
    outer loop
      vertex 28.4105 39.4714 -3
      vertex 30.217 39.2432 0
      vertex 28.4105 39.4714 0
    endloop
  endfacet
  facet normal -0.125333 -0.992115 -0
    outer loop
      vertex 30.217 39.2432 0
      vertex 28.4105 39.4714 -3
      vertex 30.217 39.2432 -3
    endloop
  endfacet
  facet normal -0.951056 -0.309018 0
    outer loop
      vertex 41.5445 28.606 -3
      vertex 40.9818 30.3378 0
      vertex 40.9818 30.3378 -3
    endloop
  endfacet
  facet normal -0.951056 -0.309018 0
    outer loop
      vertex 40.9818 30.3378 0
      vertex 41.5445 28.606 -3
      vertex 41.5445 28.606 0
    endloop
  endfacet
  facet normal 0.951056 -0.309017 0
    outer loop
      vertex 13.4555 28.606 0
      vertex 14.0182 30.3378 -3
      vertex 14.0182 30.3378 0
    endloop
  endfacet
  facet normal 0.951056 -0.309017 0
    outer loop
      vertex 14.0182 30.3378 -3
      vertex 13.4555 28.606 0
      vertex 13.4555 28.606 -3
    endloop
  endfacet
  facet normal 0.904827 -0.425779 0
    outer loop
      vertex 14.0182 30.3378 0
      vertex 14.7936 31.9854 -3
      vertex 14.7936 31.9854 0
    endloop
  endfacet
  facet normal 0.904827 -0.425779 0
    outer loop
      vertex 14.7936 31.9854 -3
      vertex 14.0182 30.3378 0
      vertex 14.0182 30.3378 -3
    endloop
  endfacet
  facet normal -0.998027 0 -0.062792
    outer loop
      vertex 14.5 47 25
      vertex 14.4842 50 25.2507
      vertex 14.5 50 25
    endloop
  endfacet
  facet normal -0.998027 -0 -0.062792
    outer loop
      vertex 14.4842 50 25.2507
      vertex 14.5 47 25
      vertex 14.4842 47 25.2507
    endloop
  endfacet
  facet normal -0.368124 0 -0.929777
    outer loop
      vertex 13.118 47 26.9021
      vertex 13.3516 50 26.8097
      vertex 13.3516 47 26.8097
    endloop
  endfacet
  facet normal -0.368124 0 -0.929777
    outer loop
      vertex 13.3516 50 26.8097
      vertex 13.118 47 26.9021
      vertex 13.118 50 26.9021
    endloop
  endfacet
  facet normal 0.481753 0 -0.876307
    outer loop
      vertex 11.4283 47 26.6887
      vertex 11.6484 50 26.8097
      vertex 11.6484 47 26.8097
    endloop
  endfacet
  facet normal 0.481753 0 -0.876307
    outer loop
      vertex 11.6484 50 26.8097
      vertex 11.4283 47 26.6887
      vertex 11.4283 50 26.6887
    endloop
  endfacet
  facet normal 0.951056 0 -0.309019
    outer loop
      vertex 10.6404 47 25.7362
      vertex 10.5628 50 25.4974
      vertex 10.6404 50 25.7362
    endloop
  endfacet
  facet normal 0.951056 0 -0.309019
    outer loop
      vertex 10.5628 50 25.4974
      vertex 10.6404 47 25.7362
      vertex 10.5628 47 25.4974
    endloop
  endfacet
  facet normal -0.998027 0 0.0627915
    outer loop
      vertex 14.4842 47 24.7493
      vertex 14.5 50 25
      vertex 14.4842 50 24.7493
    endloop
  endfacet
  facet normal -0.998027 0 0.0627915
    outer loop
      vertex 14.5 50 25
      vertex 14.4842 47 24.7493
      vertex 14.5 47 25
    endloop
  endfacet
  facet normal -0.481753 0 0.876307
    outer loop
      vertex 13.3516 50 23.1903
      vertex 13.5717 47 23.3113
      vertex 13.5717 50 23.3113
    endloop
  endfacet
  facet normal -0.481753 0 0.876307
    outer loop
      vertex 13.5717 47 23.3113
      vertex 13.3516 50 23.1903
      vertex 13.3516 47 23.1903
    endloop
  endfacet
  facet normal -0.904828 0 -0.425778
    outer loop
      vertex 14.3596 47 25.7362
      vertex 14.2526 50 25.9635
      vertex 14.3596 50 25.7362
    endloop
  endfacet
  facet normal -0.904828 -0 -0.425778
    outer loop
      vertex 14.2526 50 25.9635
      vertex 14.3596 47 25.7362
      vertex 14.2526 47 25.9635
    endloop
  endfacet
  facet normal -0.684545 0 -0.72897
    outer loop
      vertex 13.7748 47 26.541
      vertex 13.9579 50 26.3691
      vertex 13.9579 47 26.3691
    endloop
  endfacet
  facet normal -0.684545 0 -0.72897
    outer loop
      vertex 13.9579 50 26.3691
      vertex 13.7748 47 26.541
      vertex 13.7748 50 26.541
    endloop
  endfacet
  facet normal -0.844329 0 -0.535825
    outer loop
      vertex 14.2526 47 25.9635
      vertex 14.118 50 26.1756
      vertex 14.2526 50 25.9635
    endloop
  endfacet
  facet normal -0.844329 -0 -0.535825
    outer loop
      vertex 14.118 50 26.1756
      vertex 14.2526 47 25.9635
      vertex 14.118 47 26.1756
    endloop
  endfacet
  facet normal 0.998027 -0 0.0627877
    outer loop
      vertex 10.5 47 25
      vertex 10.5158 50 24.7493
      vertex 10.5 50 25
    endloop
  endfacet
  facet normal 0.998027 0 0.0627877
    outer loop
      vertex 10.5158 50 24.7493
      vertex 10.5 47 25
      vertex 10.5158 47 24.7493
    endloop
  endfacet
  facet normal -0.770514 0 0.637423
    outer loop
      vertex 13.9579 47 23.6309
      vertex 14.118 50 23.8244
      vertex 13.9579 50 23.6309
    endloop
  endfacet
  facet normal -0.770514 0 0.637423
    outer loop
      vertex 14.118 50 23.8244
      vertex 13.9579 47 23.6309
      vertex 14.118 47 23.8244
    endloop
  endfacet
  facet normal 0.125333 0 0.992115
    outer loop
      vertex 12.1252 50 23.0354
      vertex 12.3744 47 23.0039
      vertex 12.3744 50 23.0039
    endloop
  endfacet
  facet normal 0.125333 0 0.992115
    outer loop
      vertex 12.3744 47 23.0039
      vertex 12.1252 50 23.0354
      vertex 12.1252 47 23.0354
    endloop
  endfacet
  facet normal -0.684545 0 0.72897
    outer loop
      vertex 13.7748 50 23.459
      vertex 13.9579 47 23.6309
      vertex 13.9579 50 23.6309
    endloop
  endfacet
  facet normal -0.684545 0 0.72897
    outer loop
      vertex 13.9579 47 23.6309
      vertex 13.7748 50 23.459
      vertex 13.7748 47 23.459
    endloop
  endfacet
  facet normal -0.770514 0 -0.637423
    outer loop
      vertex 14.118 47 26.1756
      vertex 13.9579 50 26.3691
      vertex 14.118 50 26.1756
    endloop
  endfacet
  facet normal -0.770514 -0 -0.637423
    outer loop
      vertex 13.9579 50 26.3691
      vertex 14.118 47 26.1756
      vertex 13.9579 47 26.3691
    endloop
  endfacet
  facet normal 0.125333 0 -0.992115
    outer loop
      vertex 12.1252 47 26.9646
      vertex 12.3744 50 26.9961
      vertex 12.3744 47 26.9961
    endloop
  endfacet
  facet normal 0.125333 0 -0.992115
    outer loop
      vertex 12.3744 50 26.9961
      vertex 12.1252 47 26.9646
      vertex 12.1252 50 26.9646
    endloop
  endfacet
  facet normal 0 0 -1
    outer loop
      vertex 12.3744 47 26.9961
      vertex 12.6256 50 26.9961
      vertex 12.6256 47 26.9961
    endloop
  endfacet
  facet normal -0 0 -1
    outer loop
      vertex 12.6256 50 26.9961
      vertex 12.3744 47 26.9961
      vertex 12.3744 50 26.9961
    endloop
  endfacet
  facet normal -0.125333 0 -0.992115
    outer loop
      vertex 12.6256 47 26.9961
      vertex 12.8748 50 26.9646
      vertex 12.8748 47 26.9646
    endloop
  endfacet
  facet normal -0.125333 0 -0.992115
    outer loop
      vertex 12.8748 50 26.9646
      vertex 12.6256 47 26.9961
      vertex 12.6256 50 26.9961
    endloop
  endfacet
  facet normal -0.587785 0 -0.809017
    outer loop
      vertex 13.5717 47 26.6887
      vertex 13.7748 50 26.541
      vertex 13.7748 47 26.541
    endloop
  endfacet
  facet normal -0.587785 0 -0.809017
    outer loop
      vertex 13.7748 50 26.541
      vertex 13.5717 47 26.6887
      vertex 13.5717 50 26.6887
    endloop
  endfacet
  facet normal 0.982287 0 -0.18738
    outer loop
      vertex 10.5628 47 25.4974
      vertex 10.5158 50 25.2507
      vertex 10.5628 50 25.4974
    endloop
  endfacet
  facet normal 0.982287 0 -0.18738
    outer loop
      vertex 10.5158 50 25.2507
      vertex 10.5628 47 25.4974
      vertex 10.5158 47 25.2507
    endloop
  endfacet
  facet normal 0.844329 0 -0.535825
    outer loop
      vertex 10.882 47 26.1756
      vertex 10.7474 50 25.9635
      vertex 10.882 50 26.1756
    endloop
  endfacet
  facet normal 0.844329 0 -0.535825
    outer loop
      vertex 10.7474 50 25.9635
      vertex 10.882 47 26.1756
      vertex 10.7474 47 25.9635
    endloop
  endfacet
  facet normal 0.248685 0 -0.968585
    outer loop
      vertex 11.882 47 26.9021
      vertex 12.1252 50 26.9646
      vertex 12.1252 47 26.9646
    endloop
  endfacet
  facet normal 0.248685 0 -0.968585
    outer loop
      vertex 12.1252 50 26.9646
      vertex 11.882 47 26.9021
      vertex 11.882 50 26.9021
    endloop
  endfacet
  facet normal 0.770514 0 -0.637423
    outer loop
      vertex 11.0421 47 26.3691
      vertex 10.882 50 26.1756
      vertex 11.0421 50 26.3691
    endloop
  endfacet
  facet normal 0.770514 0 -0.637423
    outer loop
      vertex 10.882 50 26.1756
      vertex 11.0421 47 26.3691
      vertex 10.882 47 26.1756
    endloop
  endfacet
  facet normal -0.951056 0 0.309017
    outer loop
      vertex 14.3596 47 24.2638
      vertex 14.4372 50 24.5026
      vertex 14.3596 50 24.2638
    endloop
  endfacet
  facet normal -0.951056 0 0.309017
    outer loop
      vertex 14.4372 50 24.5026
      vertex 14.3596 47 24.2638
      vertex 14.4372 47 24.5026
    endloop
  endfacet
  facet normal -0.982287 0 0.187382
    outer loop
      vertex 14.4372 47 24.5026
      vertex 14.4842 50 24.7493
      vertex 14.4372 50 24.5026
    endloop
  endfacet
  facet normal -0.982287 0 0.187382
    outer loop
      vertex 14.4842 50 24.7493
      vertex 14.4372 47 24.5026
      vertex 14.4842 47 24.7493
    endloop
  endfacet
  facet normal -0.844327 0 0.535828
    outer loop
      vertex 14.118 47 23.8244
      vertex 14.2526 50 24.0365
      vertex 14.118 50 23.8244
    endloop
  endfacet
  facet normal -0.844327 0 0.535828
    outer loop
      vertex 14.2526 50 24.0365
      vertex 14.118 47 23.8244
      vertex 14.2526 47 24.0365
    endloop
  endfacet
  facet normal 0.982287 -0 0.187382
    outer loop
      vertex 10.5158 47 24.7493
      vertex 10.5628 50 24.5026
      vertex 10.5158 50 24.7493
    endloop
  endfacet
  facet normal 0.982287 0 0.187382
    outer loop
      vertex 10.5628 50 24.5026
      vertex 10.5158 47 24.7493
      vertex 10.5628 47 24.5026
    endloop
  endfacet
  facet normal 0.684545 0 0.72897
    outer loop
      vertex 11.0421 50 23.6309
      vertex 11.2252 47 23.459
      vertex 11.2252 50 23.459
    endloop
  endfacet
  facet normal 0.684545 0 0.72897
    outer loop
      vertex 11.2252 47 23.459
      vertex 11.0421 50 23.6309
      vertex 11.0421 47 23.6309
    endloop
  endfacet
  facet normal 0.951056 -0 0.309017
    outer loop
      vertex 10.5628 47 24.5026
      vertex 10.6404 50 24.2638
      vertex 10.5628 50 24.5026
    endloop
  endfacet
  facet normal 0.951056 0 0.309017
    outer loop
      vertex 10.6404 50 24.2638
      vertex 10.5628 47 24.5026
      vertex 10.6404 47 24.2638
    endloop
  endfacet
  facet normal -0.125333 0 0.992115
    outer loop
      vertex 12.6256 50 23.0039
      vertex 12.8748 47 23.0354
      vertex 12.8748 50 23.0354
    endloop
  endfacet
  facet normal -0.125333 0 0.992115
    outer loop
      vertex 12.8748 47 23.0354
      vertex 12.6256 50 23.0039
      vertex 12.6256 47 23.0039
    endloop
  endfacet
  facet normal -0.248685 0 0.968585
    outer loop
      vertex 12.8748 50 23.0354
      vertex 13.118 47 23.0979
      vertex 13.118 50 23.0979
    endloop
  endfacet
  facet normal -0.248685 0 0.968585
    outer loop
      vertex 13.118 47 23.0979
      vertex 12.8748 50 23.0354
      vertex 12.8748 47 23.0354
    endloop
  endfacet
  facet normal -0.951056 0 -0.309019
    outer loop
      vertex 14.4372 47 25.4974
      vertex 14.3596 50 25.7362
      vertex 14.4372 50 25.4974
    endloop
  endfacet
  facet normal -0.951056 -0 -0.309019
    outer loop
      vertex 14.3596 50 25.7362
      vertex 14.4372 47 25.4974
      vertex 14.3596 47 25.7362
    endloop
  endfacet
  facet normal -0.982287 0 -0.18738
    outer loop
      vertex 14.4842 47 25.2507
      vertex 14.4372 50 25.4974
      vertex 14.4842 50 25.2507
    endloop
  endfacet
  facet normal -0.982287 -0 -0.18738
    outer loop
      vertex 14.4372 50 25.4974
      vertex 14.4842 47 25.2507
      vertex 14.4372 47 25.4974
    endloop
  endfacet
  facet normal -0.248685 0 -0.968585
    outer loop
      vertex 12.8748 47 26.9646
      vertex 13.118 50 26.9021
      vertex 13.118 47 26.9021
    endloop
  endfacet
  facet normal -0.248685 0 -0.968585
    outer loop
      vertex 13.118 50 26.9021
      vertex 12.8748 47 26.9646
      vertex 12.8748 50 26.9646
    endloop
  endfacet
  facet normal -0.481753 0 -0.876307
    outer loop
      vertex 13.3516 47 26.8097
      vertex 13.5717 50 26.6887
      vertex 13.5717 47 26.6887
    endloop
  endfacet
  facet normal -0.481753 0 -0.876307
    outer loop
      vertex 13.5717 50 26.6887
      vertex 13.3516 47 26.8097
      vertex 13.3516 50 26.8097
    endloop
  endfacet
  facet normal 0.998027 0 -0.0627882
    outer loop
      vertex 10.5158 47 25.2507
      vertex 10.5 50 25
      vertex 10.5158 50 25.2507
    endloop
  endfacet
  facet normal 0.998027 0 -0.0627882
    outer loop
      vertex 10.5 50 25
      vertex 10.5158 47 25.2507
      vertex 10.5 47 25
    endloop
  endfacet
  facet normal 0.904828 0 -0.425778
    outer loop
      vertex 10.7474 47 25.9635
      vertex 10.6404 50 25.7362
      vertex 10.7474 50 25.9635
    endloop
  endfacet
  facet normal 0.904828 0 -0.425778
    outer loop
      vertex 10.6404 50 25.7362
      vertex 10.7474 47 25.9635
      vertex 10.6404 47 25.7362
    endloop
  endfacet
  facet normal 0.368124 0 -0.929777
    outer loop
      vertex 11.6484 47 26.8097
      vertex 11.882 50 26.9021
      vertex 11.882 47 26.9021
    endloop
  endfacet
  facet normal 0.368124 0 -0.929777
    outer loop
      vertex 11.882 50 26.9021
      vertex 11.6484 47 26.8097
      vertex 11.6484 50 26.8097
    endloop
  endfacet
  facet normal 0.587785 0 -0.809017
    outer loop
      vertex 11.2252 47 26.541
      vertex 11.4283 50 26.6887
      vertex 11.4283 47 26.6887
    endloop
  endfacet
  facet normal 0.587785 0 -0.809017
    outer loop
      vertex 11.4283 50 26.6887
      vertex 11.2252 47 26.541
      vertex 11.2252 50 26.541
    endloop
  endfacet
  facet normal 0.684545 0 -0.72897
    outer loop
      vertex 11.0421 47 26.3691
      vertex 11.2252 50 26.541
      vertex 11.2252 47 26.541
    endloop
  endfacet
  facet normal 0.684545 0 -0.72897
    outer loop
      vertex 11.2252 50 26.541
      vertex 11.0421 47 26.3691
      vertex 11.0421 50 26.3691
    endloop
  endfacet
  facet normal -0.587785 0 0.809017
    outer loop
      vertex 13.5717 50 23.3113
      vertex 13.7748 47 23.459
      vertex 13.7748 50 23.459
    endloop
  endfacet
  facet normal -0.587785 0 0.809017
    outer loop
      vertex 13.7748 47 23.459
      vertex 13.5717 50 23.3113
      vertex 13.5717 47 23.3113
    endloop
  endfacet
  facet normal -0.904828 0 0.425778
    outer loop
      vertex 14.2526 47 24.0365
      vertex 14.3596 50 24.2638
      vertex 14.2526 50 24.0365
    endloop
  endfacet
  facet normal -0.904828 0 0.425778
    outer loop
      vertex 14.3596 50 24.2638
      vertex 14.2526 47 24.0365
      vertex 14.3596 47 24.2638
    endloop
  endfacet
  facet normal 0.904828 -0 0.425778
    outer loop
      vertex 10.6404 47 24.2638
      vertex 10.7474 50 24.0365
      vertex 10.6404 50 24.2638
    endloop
  endfacet
  facet normal 0.904828 0 0.425778
    outer loop
      vertex 10.7474 50 24.0365
      vertex 10.6404 47 24.2638
      vertex 10.7474 47 24.0365
    endloop
  endfacet
  facet normal 0.770514 -0 0.637423
    outer loop
      vertex 10.882 47 23.8244
      vertex 11.0421 50 23.6309
      vertex 10.882 50 23.8244
    endloop
  endfacet
  facet normal 0.770514 0 0.637423
    outer loop
      vertex 11.0421 50 23.6309
      vertex 10.882 47 23.8244
      vertex 11.0421 47 23.6309
    endloop
  endfacet
  facet normal 0.844327 -0 0.535828
    outer loop
      vertex 10.7474 47 24.0365
      vertex 10.882 50 23.8244
      vertex 10.7474 50 24.0365
    endloop
  endfacet
  facet normal 0.844327 0 0.535828
    outer loop
      vertex 10.882 50 23.8244
      vertex 10.7474 47 24.0365
      vertex 10.882 47 23.8244
    endloop
  endfacet
  facet normal -0.368131 0 0.929774
    outer loop
      vertex 13.118 50 23.0979
      vertex 13.3516 47 23.1903
      vertex 13.3516 50 23.1903
    endloop
  endfacet
  facet normal -0.368131 0 0.929774
    outer loop
      vertex 13.3516 47 23.1903
      vertex 13.118 50 23.0979
      vertex 13.118 47 23.0979
    endloop
  endfacet
  facet normal 0.248685 0 0.968585
    outer loop
      vertex 11.882 50 23.0979
      vertex 12.1252 47 23.0354
      vertex 12.1252 50 23.0354
    endloop
  endfacet
  facet normal 0.248685 0 0.968585
    outer loop
      vertex 12.1252 47 23.0354
      vertex 11.882 50 23.0979
      vertex 11.882 47 23.0979
    endloop
  endfacet
  facet normal 0.587785 0 0.809017
    outer loop
      vertex 11.2252 50 23.459
      vertex 11.4283 47 23.3113
      vertex 11.4283 50 23.3113
    endloop
  endfacet
  facet normal 0.587785 0 0.809017
    outer loop
      vertex 11.4283 47 23.3113
      vertex 11.2252 50 23.459
      vertex 11.2252 47 23.459
    endloop
  endfacet
  facet normal 0.481753 0 0.876307
    outer loop
      vertex 11.4283 50 23.3113
      vertex 11.6484 47 23.1903
      vertex 11.6484 50 23.1903
    endloop
  endfacet
  facet normal 0.481753 0 0.876307
    outer loop
      vertex 11.6484 47 23.1903
      vertex 11.4283 50 23.3113
      vertex 11.4283 47 23.3113
    endloop
  endfacet
  facet normal -0 0 1
    outer loop
      vertex 12.3744 50 23.0039
      vertex 12.6256 47 23.0039
      vertex 12.6256 50 23.0039
    endloop
  endfacet
  facet normal 0 0 1
    outer loop
      vertex 12.6256 47 23.0039
      vertex 12.3744 50 23.0039
      vertex 12.3744 47 23.0039
    endloop
  endfacet
  facet normal 0.368131 0 0.929774
    outer loop
      vertex 11.6484 50 23.1903
      vertex 11.882 47 23.0979
      vertex 11.882 50 23.0979
    endloop
  endfacet
  facet normal 0.368131 0 0.929774
    outer loop
      vertex 11.882 47 23.0979
      vertex 11.6484 50 23.1903
      vertex 11.6484 47 23.1903
    endloop
  endfacet
  facet normal -0.998027 0 -0.0627882
    outer loop
      vertex 44.5 47 25
      vertex 44.4842 50 25.2507
      vertex 44.5 50 25
    endloop
  endfacet
  facet normal -0.998027 -0 -0.0627882
    outer loop
      vertex 44.4842 50 25.2507
      vertex 44.5 47 25
      vertex 44.4842 47 25.2507
    endloop
  endfacet
  facet normal -0.368124 0 -0.929777
    outer loop
      vertex 43.118 47 26.9021
      vertex 43.3516 50 26.8097
      vertex 43.3516 47 26.8097
    endloop
  endfacet
  facet normal -0.368124 0 -0.929777
    outer loop
      vertex 43.3516 50 26.8097
      vertex 43.118 47 26.9021
      vertex 43.118 50 26.9021
    endloop
  endfacet
  facet normal 0.481751 0 -0.876308
    outer loop
      vertex 41.4283 47 26.6887
      vertex 41.6484 50 26.8097
      vertex 41.6484 47 26.8097
    endloop
  endfacet
  facet normal 0.481751 0 -0.876308
    outer loop
      vertex 41.6484 50 26.8097
      vertex 41.4283 47 26.6887
      vertex 41.4283 50 26.6887
    endloop
  endfacet
  facet normal -0.904831 0 -0.425771
    outer loop
      vertex 44.3596 47 25.7362
      vertex 44.2526 50 25.9635
      vertex 44.3596 50 25.7362
    endloop
  endfacet
  facet normal -0.904831 -0 -0.425771
    outer loop
      vertex 44.2526 50 25.9635
      vertex 44.3596 47 25.7362
      vertex 44.2526 47 25.9635
    endloop
  endfacet
  facet normal -0.684545 0 -0.72897
    outer loop
      vertex 43.7748 47 26.541
      vertex 43.9579 50 26.3691
      vertex 43.9579 47 26.3691
    endloop
  endfacet
  facet normal -0.684545 0 -0.72897
    outer loop
      vertex 43.9579 50 26.3691
      vertex 43.7748 47 26.541
      vertex 43.7748 50 26.541
    endloop
  endfacet
  facet normal -0.844331 0 -0.535822
    outer loop
      vertex 44.2526 47 25.9635
      vertex 44.118 50 26.1756
      vertex 44.2526 50 25.9635
    endloop
  endfacet
  facet normal -0.844331 -0 -0.535822
    outer loop
      vertex 44.118 50 26.1756
      vertex 44.2526 47 25.9635
      vertex 44.118 47 26.1756
    endloop
  endfacet
  facet normal 0.844331 0 -0.535822
    outer loop
      vertex 40.882 47 26.1756
      vertex 40.7474 50 25.9635
      vertex 40.882 50 26.1756
    endloop
  endfacet
  facet normal 0.844331 0 -0.535822
    outer loop
      vertex 40.7474 50 25.9635
      vertex 40.882 47 26.1756
      vertex 40.7474 47 25.9635
    endloop
  endfacet
  facet normal 0.770516 0 -0.637421
    outer loop
      vertex 41.0421 47 26.3691
      vertex 40.882 50 26.1756
      vertex 41.0421 50 26.3691
    endloop
  endfacet
  facet normal 0.770516 0 -0.637421
    outer loop
      vertex 40.882 50 26.1756
      vertex 41.0421 47 26.3691
      vertex 40.882 47 26.1756
    endloop
  endfacet
  facet normal -0.587785 0 0.809017
    outer loop
      vertex 43.5717 50 23.3113
      vertex 43.7748 47 23.459
      vertex 43.7748 50 23.459
    endloop
  endfacet
  facet normal -0.587785 0 0.809017
    outer loop
      vertex 43.7748 47 23.459
      vertex 43.5717 50 23.3113
      vertex 43.5717 47 23.3113
    endloop
  endfacet
  facet normal 0.844329 -0 0.535825
    outer loop
      vertex 40.7474 47 24.0365
      vertex 40.882 50 23.8244
      vertex 40.7474 50 24.0365
    endloop
  endfacet
  facet normal 0.844329 0 0.535825
    outer loop
      vertex 40.882 50 23.8244
      vertex 40.7474 47 24.0365
      vertex 40.882 47 23.8244
    endloop
  endfacet
  facet normal -0.770516 0 -0.637421
    outer loop
      vertex 44.118 47 26.1756
      vertex 43.9579 50 26.3691
      vertex 44.118 50 26.1756
    endloop
  endfacet
  facet normal -0.770516 -0 -0.637421
    outer loop
      vertex 43.9579 50 26.3691
      vertex 44.118 47 26.1756
      vertex 43.9579 47 26.3691
    endloop
  endfacet
  facet normal 0.125332 0 -0.992115
    outer loop
      vertex 42.1252 47 26.9646
      vertex 42.3744 50 26.9961
      vertex 42.3744 47 26.9961
    endloop
  endfacet
  facet normal 0.125332 0 -0.992115
    outer loop
      vertex 42.3744 50 26.9961
      vertex 42.1252 47 26.9646
      vertex 42.1252 50 26.9646
    endloop
  endfacet
  facet normal -0.248685 0 -0.968585
    outer loop
      vertex 42.8748 47 26.9646
      vertex 43.118 50 26.9021
      vertex 43.118 47 26.9021
    endloop
  endfacet
  facet normal -0.248685 0 -0.968585
    outer loop
      vertex 43.118 50 26.9021
      vertex 42.8748 47 26.9646
      vertex 42.8748 50 26.9646
    endloop
  endfacet
  facet normal -0.125332 0 -0.992115
    outer loop
      vertex 42.6256 47 26.9961
      vertex 42.8748 50 26.9646
      vertex 42.8748 47 26.9646
    endloop
  endfacet
  facet normal -0.125332 0 -0.992115
    outer loop
      vertex 42.8748 50 26.9646
      vertex 42.6256 47 26.9961
      vertex 42.6256 50 26.9961
    endloop
  endfacet
  facet normal -0.587785 0 -0.809017
    outer loop
      vertex 43.5717 47 26.6887
      vertex 43.7748 50 26.541
      vertex 43.7748 47 26.541
    endloop
  endfacet
  facet normal -0.587785 0 -0.809017
    outer loop
      vertex 43.7748 50 26.541
      vertex 43.5717 47 26.6887
      vertex 43.5717 50 26.6887
    endloop
  endfacet
  facet normal 0.998027 -0 0.0627877
    outer loop
      vertex 40.5 47 25
      vertex 40.5158 50 24.7493
      vertex 40.5 50 25
    endloop
  endfacet
  facet normal 0.998027 0 0.0627877
    outer loop
      vertex 40.5158 50 24.7493
      vertex 40.5 47 25
      vertex 40.5158 47 24.7493
    endloop
  endfacet
  facet normal 0.982288 0 -0.187377
    outer loop
      vertex 40.5628 47 25.4974
      vertex 40.5158 50 25.2507
      vertex 40.5628 50 25.4974
    endloop
  endfacet
  facet normal 0.982288 0 -0.187377
    outer loop
      vertex 40.5158 50 25.2507
      vertex 40.5628 47 25.4974
      vertex 40.5158 47 25.2507
    endloop
  endfacet
  facet normal 0.248685 0 -0.968585
    outer loop
      vertex 41.882 47 26.9021
      vertex 42.1252 50 26.9646
      vertex 42.1252 47 26.9646
    endloop
  endfacet
  facet normal 0.248685 0 -0.968585
    outer loop
      vertex 42.1252 50 26.9646
      vertex 41.882 47 26.9021
      vertex 41.882 50 26.9021
    endloop
  endfacet
  facet normal 0.684545 0 -0.72897
    outer loop
      vertex 41.0421 47 26.3691
      vertex 41.2252 50 26.541
      vertex 41.2252 47 26.541
    endloop
  endfacet
  facet normal 0.684545 0 -0.72897
    outer loop
      vertex 41.2252 50 26.541
      vertex 41.0421 47 26.3691
      vertex 41.0421 50 26.3691
    endloop
  endfacet
  facet normal 0.587785 0 -0.809017
    outer loop
      vertex 41.2252 47 26.541
      vertex 41.4283 50 26.6887
      vertex 41.4283 47 26.6887
    endloop
  endfacet
  facet normal 0.587785 0 -0.809017
    outer loop
      vertex 41.4283 50 26.6887
      vertex 41.2252 47 26.541
      vertex 41.2252 50 26.541
    endloop
  endfacet
  facet normal -0.998027 0 0.0627877
    outer loop
      vertex 44.4842 47 24.7493
      vertex 44.5 50 25
      vertex 44.4842 50 24.7493
    endloop
  endfacet
  facet normal -0.998027 0 0.0627877
    outer loop
      vertex 44.5 50 25
      vertex 44.4842 47 24.7493
      vertex 44.5 47 25
    endloop
  endfacet
  facet normal -0.951056 0 0.309017
    outer loop
      vertex 44.3596 47 24.2638
      vertex 44.4372 50 24.5026
      vertex 44.3596 50 24.2638
    endloop
  endfacet
  facet normal -0.951056 0 0.309017
    outer loop
      vertex 44.4372 50 24.5026
      vertex 44.3596 47 24.2638
      vertex 44.4372 47 24.5026
    endloop
  endfacet
  facet normal -0.770516 0 0.637421
    outer loop
      vertex 43.9579 47 23.6309
      vertex 44.118 50 23.8244
      vertex 43.9579 50 23.6309
    endloop
  endfacet
  facet normal -0.770516 0 0.637421
    outer loop
      vertex 44.118 50 23.8244
      vertex 43.9579 47 23.6309
      vertex 44.118 47 23.8244
    endloop
  endfacet
  facet normal 0.587785 0 0.809017
    outer loop
      vertex 41.2252 50 23.459
      vertex 41.4283 47 23.3113
      vertex 41.4283 50 23.3113
    endloop
  endfacet
  facet normal 0.587785 0 0.809017
    outer loop
      vertex 41.4283 47 23.3113
      vertex 41.2252 50 23.459
      vertex 41.2252 47 23.459
    endloop
  endfacet
  facet normal 0.982288 -0 0.187378
    outer loop
      vertex 40.5158 47 24.7493
      vertex 40.5628 50 24.5026
      vertex 40.5158 50 24.7493
    endloop
  endfacet
  facet normal 0.982288 0 0.187378
    outer loop
      vertex 40.5628 50 24.5026
      vertex 40.5158 47 24.7493
      vertex 40.5628 47 24.5026
    endloop
  endfacet
  facet normal 0.684545 0 0.72897
    outer loop
      vertex 41.0421 50 23.6309
      vertex 41.2252 47 23.459
      vertex 41.2252 50 23.459
    endloop
  endfacet
  facet normal 0.684545 0 0.72897
    outer loop
      vertex 41.2252 47 23.459
      vertex 41.0421 50 23.6309
      vertex 41.0421 47 23.6309
    endloop
  endfacet
  facet normal -0.125332 0 0.992115
    outer loop
      vertex 42.6256 50 23.0039
      vertex 42.8748 47 23.0354
      vertex 42.8748 50 23.0354
    endloop
  endfacet
  facet normal -0.125332 0 0.992115
    outer loop
      vertex 42.8748 47 23.0354
      vertex 42.6256 50 23.0039
      vertex 42.6256 47 23.0039
    endloop
  endfacet
  facet normal -0.248685 0 0.968585
    outer loop
      vertex 42.8748 50 23.0354
      vertex 43.118 47 23.0979
      vertex 43.118 50 23.0979
    endloop
  endfacet
  facet normal -0.248685 0 0.968585
    outer loop
      vertex 43.118 47 23.0979
      vertex 42.8748 50 23.0354
      vertex 42.8748 47 23.0354
    endloop
  endfacet
  facet normal -0.951056 0 -0.309019
    outer loop
      vertex 44.4372 47 25.4974
      vertex 44.3596 50 25.7362
      vertex 44.4372 50 25.4974
    endloop
  endfacet
  facet normal -0.951056 -0 -0.309019
    outer loop
      vertex 44.3596 50 25.7362
      vertex 44.4372 47 25.4974
      vertex 44.3596 47 25.7362
    endloop
  endfacet
  facet normal -0.982285 0 -0.187391
    outer loop
      vertex 44.4842 47 25.2507
      vertex 44.4372 50 25.4974
      vertex 44.4842 50 25.2507
    endloop
  endfacet
  facet normal -0.982285 -0 -0.187391
    outer loop
      vertex 44.4372 50 25.4974
      vertex 44.4842 47 25.2507
      vertex 44.4372 47 25.4974
    endloop
  endfacet
  facet normal 0 0 -1
    outer loop
      vertex 42.3744 47 26.9961
      vertex 42.6256 50 26.9961
      vertex 42.6256 47 26.9961
    endloop
  endfacet
  facet normal -0 0 -1
    outer loop
      vertex 42.6256 50 26.9961
      vertex 42.3744 47 26.9961
      vertex 42.3744 50 26.9961
    endloop
  endfacet
  facet normal -0.481751 0 -0.876308
    outer loop
      vertex 43.3516 47 26.8097
      vertex 43.5717 50 26.6887
      vertex 43.5717 47 26.6887
    endloop
  endfacet
  facet normal -0.481751 0 -0.876308
    outer loop
      vertex 43.5717 50 26.6887
      vertex 43.3516 47 26.8097
      vertex 43.3516 50 26.8097
    endloop
  endfacet
  facet normal 0.998027 0 -0.0627882
    outer loop
      vertex 40.5158 47 25.2507
      vertex 40.5 50 25
      vertex 40.5158 50 25.2507
    endloop
  endfacet
  facet normal 0.998027 0 -0.0627882
    outer loop
      vertex 40.5 50 25
      vertex 40.5158 47 25.2507
      vertex 40.5 47 25
    endloop
  endfacet
  facet normal 0.904825 0 -0.425784
    outer loop
      vertex 40.7474 47 25.9635
      vertex 40.6404 50 25.7362
      vertex 40.7474 50 25.9635
    endloop
  endfacet
  facet normal 0.904825 0 -0.425784
    outer loop
      vertex 40.6404 50 25.7362
      vertex 40.7474 47 25.9635
      vertex 40.6404 47 25.7362
    endloop
  endfacet
  facet normal 0.951056 0 -0.309019
    outer loop
      vertex 40.6404 47 25.7362
      vertex 40.5628 50 25.4974
      vertex 40.6404 50 25.7362
    endloop
  endfacet
  facet normal 0.951056 0 -0.309019
    outer loop
      vertex 40.5628 50 25.4974
      vertex 40.6404 47 25.7362
      vertex 40.5628 47 25.4974
    endloop
  endfacet
  facet normal 0.368124 0 -0.929777
    outer loop
      vertex 41.6484 47 26.8097
      vertex 41.882 50 26.9021
      vertex 41.882 47 26.9021
    endloop
  endfacet
  facet normal 0.368124 0 -0.929777
    outer loop
      vertex 41.882 50 26.9021
      vertex 41.6484 47 26.8097
      vertex 41.6484 50 26.8097
    endloop
  endfacet
  facet normal -0.982285 0 0.187393
    outer loop
      vertex 44.4372 47 24.5026
      vertex 44.4842 50 24.7493
      vertex 44.4372 50 24.5026
    endloop
  endfacet
  facet normal -0.982285 0 0.187393
    outer loop
      vertex 44.4842 50 24.7493
      vertex 44.4372 47 24.5026
      vertex 44.4842 47 24.7493
    endloop
  endfacet
  facet normal -0.684545 0 0.72897
    outer loop
      vertex 43.7748 50 23.459
      vertex 43.9579 47 23.6309
      vertex 43.9579 50 23.6309
    endloop
  endfacet
  facet normal -0.684545 0 0.72897
    outer loop
      vertex 43.9579 47 23.6309
      vertex 43.7748 50 23.459
      vertex 43.7748 47 23.459
    endloop
  endfacet
  facet normal -0.904831 0 0.425771
    outer loop
      vertex 44.2526 47 24.0365
      vertex 44.3596 50 24.2638
      vertex 44.2526 50 24.0365
    endloop
  endfacet
  facet normal -0.904831 0 0.425771
    outer loop
      vertex 44.3596 50 24.2638
      vertex 44.2526 47 24.0365
      vertex 44.3596 47 24.2638
    endloop
  endfacet
  facet normal 0.125332 0 0.992115
    outer loop
      vertex 42.1252 50 23.0354
      vertex 42.3744 47 23.0039
      vertex 42.3744 50 23.0039
    endloop
  endfacet
  facet normal 0.125332 0 0.992115
    outer loop
      vertex 42.3744 47 23.0039
      vertex 42.1252 50 23.0354
      vertex 42.1252 47 23.0354
    endloop
  endfacet
  facet normal 0.904825 -0 0.425784
    outer loop
      vertex 40.6404 47 24.2638
      vertex 40.7474 50 24.0365
      vertex 40.6404 50 24.2638
    endloop
  endfacet
  facet normal 0.904825 0 0.425784
    outer loop
      vertex 40.7474 50 24.0365
      vertex 40.6404 47 24.2638
      vertex 40.7474 47 24.0365
    endloop
  endfacet
  facet normal 0.951056 -0 0.309017
    outer loop
      vertex 40.5628 47 24.5026
      vertex 40.6404 50 24.2638
      vertex 40.5628 50 24.5026
    endloop
  endfacet
  facet normal 0.951056 0 0.309017
    outer loop
      vertex 40.6404 50 24.2638
      vertex 40.5628 47 24.5026
      vertex 40.6404 47 24.2638
    endloop
  endfacet
  facet normal 0.770516 -0 0.637421
    outer loop
      vertex 40.882 47 23.8244
      vertex 41.0421 50 23.6309
      vertex 40.882 50 23.8244
    endloop
  endfacet
  facet normal 0.770516 0 0.637421
    outer loop
      vertex 41.0421 50 23.6309
      vertex 40.882 47 23.8244
      vertex 41.0421 47 23.6309
    endloop
  endfacet
  facet normal -0.481751 0 0.876308
    outer loop
      vertex 43.3516 50 23.1903
      vertex 43.5717 47 23.3113
      vertex 43.5717 50 23.3113
    endloop
  endfacet
  facet normal -0.481751 0 0.876308
    outer loop
      vertex 43.5717 47 23.3113
      vertex 43.3516 50 23.1903
      vertex 43.3516 47 23.1903
    endloop
  endfacet
  facet normal -0.368131 0 0.929774
    outer loop
      vertex 43.118 50 23.0979
      vertex 43.3516 47 23.1903
      vertex 43.3516 50 23.1903
    endloop
  endfacet
  facet normal -0.368131 0 0.929774
    outer loop
      vertex 43.3516 47 23.1903
      vertex 43.118 50 23.0979
      vertex 43.118 47 23.0979
    endloop
  endfacet
  facet normal -0.844329 0 0.535825
    outer loop
      vertex 44.118 47 23.8244
      vertex 44.2526 50 24.0365
      vertex 44.118 50 23.8244
    endloop
  endfacet
  facet normal -0.844329 0 0.535825
    outer loop
      vertex 44.2526 50 24.0365
      vertex 44.118 47 23.8244
      vertex 44.2526 47 24.0365
    endloop
  endfacet
  facet normal 0.481751 0 0.876308
    outer loop
      vertex 41.4283 50 23.3113
      vertex 41.6484 47 23.1903
      vertex 41.6484 50 23.1903
    endloop
  endfacet
  facet normal 0.481751 0 0.876308
    outer loop
      vertex 41.6484 47 23.1903
      vertex 41.4283 50 23.3113
      vertex 41.4283 47 23.3113
    endloop
  endfacet
  facet normal 0.248685 0 0.968585
    outer loop
      vertex 41.882 50 23.0979
      vertex 42.1252 47 23.0354
      vertex 42.1252 50 23.0354
    endloop
  endfacet
  facet normal 0.248685 0 0.968585
    outer loop
      vertex 42.1252 47 23.0354
      vertex 41.882 50 23.0979
      vertex 41.882 47 23.0979
    endloop
  endfacet
  facet normal 0.368131 0 0.929774
    outer loop
      vertex 41.6484 50 23.1903
      vertex 41.882 47 23.0979
      vertex 41.882 50 23.0979
    endloop
  endfacet
  facet normal 0.368131 0 0.929774
    outer loop
      vertex 41.882 47 23.0979
      vertex 41.6484 50 23.1903
      vertex 41.6484 47 23.1903
    endloop
  endfacet
  facet normal -0 0 1
    outer loop
      vertex 42.3744 50 23.0039
      vertex 42.6256 47 23.0039
      vertex 42.6256 50 23.0039
    endloop
  endfacet
  facet normal 0 0 1
    outer loop
      vertex 42.6256 47 23.0039
      vertex 42.3744 50 23.0039
      vertex 42.3744 47 23.0039
    endloop
  endfacet
endsolid OpenSCAD_Model
